<?xml version="1.0" standalone="no"?>
<!DOCTYPE svg PUBLIC "-//W3C//DTD SVG 20010904//EN"
 "http://www.w3.org/TR/2001/REC-SVG-20010904/DTD/svg10.dtd">
<svg version="1.0" xmlns="http://www.w3.org/2000/svg"
 width="1535.000000pt" height="1536.000000pt" viewBox="0 0 1535.000000 1536.000000"
 preserveAspectRatio="xMidYMid meet">

<g transform="translate(0.000000,1536.000000) scale(0.100000,-0.100000)"
fill="#000000" stroke="none">
<path d="M6911 15032 c-13 -2 -30 -10 -38 -17 -11 -12 -8 -14 19 -17 39 -4 48
-23 13 -32 -30 -8 -34 -36 -5 -36 11 0 20 -3 20 -8 0 -4 -51 -15 -112 -25 -89
-13 -130 -25 -194 -56 -45 -22 -99 -43 -120 -47 -43 -7 -90 -28 -116 -51 -9
-8 -42 -17 -73 -19 -37 -3 -63 -12 -76 -25 -10 -10 -30 -19 -42 -19 -13 0 -32
-9 -42 -20 -10 -11 -30 -20 -44 -20 -14 0 -42 -10 -61 -22 -31 -18 -52 -26
-121 -43 -69 -16 -279 -146 -356 -220 -25 -25 -50 -45 -55 -45 -4 0 -8 -5 -8
-12 0 -7 -26 -38 -57 -69 -72 -70 -164 -175 -189 -214 -10 -16 -99 -110 -196
-208 -98 -97 -178 -183 -178 -190 0 -14 -57 -77 -70 -77 -13 0 -84 -71 -105
-105 l-19 -30 25 22 c17 15 34 20 59 18 19 -2 40 -4 45 -5 6 0 0 -8 -12 -18
-21 -16 -122 -199 -138 -251 -4 -14 -24 -50 -44 -80 -45 -70 -66 -143 -49
-171 10 -15 9 -23 -6 -39 -10 -11 -15 -24 -12 -30 3 -5 -10 -19 -29 -31 -29
-18 -33 -25 -24 -36 6 -8 15 -11 21 -8 5 3 15 1 22 -5 11 -10 10 -20 -9 -59
-32 -66 -46 -117 -39 -135 6 -15 -40 -182 -56 -202 -4 -5 -11 -30 -15 -55 -4
-25 -14 -72 -23 -105 -14 -53 -21 -135 -22 -245 -1 -103 22 -269 44 -322 12
-29 14 -61 10 -148 -3 -71 -2 -116 5 -124 7 -9 7 -23 0 -47 -5 -19 -12 -65
-14 -104 -3 -60 0 -73 17 -92 13 -14 19 -30 15 -43 -4 -15 0 -20 15 -20 17 0
19 -5 15 -27 -3 -15 -2 -35 3 -43 4 -8 5 -46 1 -83 -4 -38 -3 -70 1 -73 5 -3
6 -9 3 -14 -8 -13 17 -50 33 -50 9 0 11 -7 7 -20 -3 -10 1 -42 9 -69 9 -32 11
-53 5 -57 -15 -9 11 -36 29 -29 12 4 14 -2 9 -39 -6 -41 -5 -44 15 -38 18 4
20 2 16 -26 -4 -26 -1 -32 13 -32 11 0 16 -5 14 -12 -4 -9 7 -14 31 -15 45 -2
47 -5 33 -36 -17 -37 -5 -61 26 -53 23 6 35 -7 17 -18 -14 -8 -1 -76 14 -76 9
0 14 -11 14 -31 0 -30 3 -46 36 -184 17 -76 97 -241 146 -302 36 -45 85 -129
160 -273 92 -175 101 -190 158 -259 47 -56 62 -67 94 -71 35 -5 39 -9 53 -49
12 -36 12 -45 1 -52 -13 -9 -11 -10 14 -13 20 -2 21 -36 3 -56 -15 -17 -14
-20 19 -45 40 -30 91 -45 130 -38 20 4 25 11 24 32 -1 14 -5 31 -8 36 -7 9
-12 40 -40 225 -5 36 -19 115 -30 175 -32 166 -48 294 -45 350 2 28 -1 55 -6
61 -12 15 -20 110 -19 222 1 77 -1 92 -14 92 -19 0 -20 8 -1 40 8 14 14 46 15
73 0 26 5 47 10 47 6 0 10 18 10 40 0 29 4 40 15 40 11 0 15 12 16 43 l1 42 8
-53 c9 -58 13 -67 29 -57 7 3 11 43 11 96 l0 89 55 0 55 0 0 -40 c0 -29 -4
-40 -15 -40 -11 0 -15 -11 -15 -40 0 -38 2 -40 30 -40 17 0 30 5 30 11 0 6 5
9 11 7 6 -2 11 -8 11 -13 0 -27 24 -35 104 -35 49 0 84 -4 84 -10 0 -15 70
-12 130 6 30 9 71 14 92 11 28 -4 38 -1 38 8 0 10 18 13 66 13 37 0 69 4 73 8
6 10 40 14 136 17 48 2 65 7 83 25 19 19 33 23 70 21 32 -2 46 1 45 9 -2 7 2
12 9 12 6 0 19 7 29 16 11 10 43 17 89 19 74 5 100 16 100 43 0 8 3 12 7 9 3
-4 16 1 27 12 12 11 35 21 51 23 21 2 30 8 29 21 -1 12 6 17 23 17 22 0 25 4
20 25 -3 17 1 30 12 38 10 7 28 27 41 45 19 26 22 35 11 41 -10 7 -9 9 3 14
13 5 16 -2 16 -43 l0 -50 58 0 59 0 12 40 c6 22 18 40 25 40 8 0 16 16 19 36
9 52 47 90 47 47 0 -15 3 -14 23 5 20 21 21 24 5 33 -21 12 -24 41 -4 33 10
-4 18 9 27 46 11 45 16 51 35 47 16 -3 21 0 17 11 -4 8 4 22 17 32 13 10 24
28 26 41 1 13 3 27 3 32 1 4 8 7 16 7 8 0 15 9 15 20 0 12 9 30 20 42 11 12
20 28 20 35 0 7 7 13 15 13 8 0 15 7 15 15 0 8 6 12 13 9 7 -2 21 4 30 14 16
17 16 21 2 32 -18 15 -5 46 25 55 11 3 20 13 20 21 0 10 12 14 40 14 24 0 40
5 40 12 0 9 3 9 12 0 7 -7 25 -12 40 -12 26 0 28 -3 28 -40 0 -28 4 -40 14
-40 8 0 17 -6 20 -12 5 -10 7 -10 12 0 3 6 19 12 35 12 25 0 29 4 29 29 0 17
5 33 10 36 6 4 10 -7 10 -25 0 -45 16 -69 40 -63 24 6 27 -15 4 -24 -13 -5
-11 -10 11 -30 18 -17 25 -33 23 -51 -3 -38 33 -142 49 -142 8 0 22 -13 31
-30 9 -16 20 -30 25 -30 4 0 7 -11 7 -24 0 -27 20 -51 50 -61 11 -3 20 -14 20
-22 0 -9 3 -13 7 -9 4 4 6 23 5 44 -1 31 0 34 8 15 10 -25 29 -30 47 -12 18
18 58 7 58 -16 0 -11 10 -24 23 -30 12 -5 22 -15 22 -22 0 -6 12 -21 26 -32
14 -11 23 -25 19 -31 -3 -6 3 -10 14 -10 12 0 21 -4 21 -10 0 -5 7 -10 16 -10
8 0 22 -7 30 -15 20 -19 34 -19 34 0 0 10 11 15 35 15 19 0 35 4 35 10 0 6 10
5 25 -2 19 -8 28 -8 40 2 14 12 18 11 26 -1 8 -12 11 -11 23 3 11 15 101 35
130 28 13 -3 28 28 20 41 -3 6 -19 9 -35 5 -15 -3 -31 -1 -34 4 -3 6 1 10 9
10 24 0 66 22 66 34 0 16 74 35 150 39 76 3 90 10 90 43 0 13 5 24 10 24 6 0
10 -7 10 -15 0 -8 4 -15 10 -15 14 0 31 37 24 54 -5 12 -2 15 10 10 9 -3 23 0
32 7 12 10 25 10 65 0 41 -11 56 -11 82 0 48 20 68 48 63 88 -6 41 -11 45
-101 71 -66 20 -174 58 -290 103 -36 14 -85 20 -180 24 -144 6 -196 23 -255
83 -17 17 -36 30 -42 28 -15 -5 -48 28 -48 47 0 9 -11 27 -25 41 -27 27 -34
57 -11 48 10 -4 16 5 21 26 4 17 17 41 30 54 34 34 91 67 100 58 5 -4 5 -2 1
5 -4 8 5 14 28 18 19 4 47 20 62 36 23 24 34 28 56 23 27 -5 28 -5 17 19 -10
21 -8 29 9 47 11 12 25 19 31 15 13 -7 81 15 81 27 0 14 -27 9 -40 -7 -7 -8
-17 -15 -22 -15 -5 0 -3 7 6 15 19 20 82 46 89 38 4 -3 21 8 39 26 l32 31 -32
0 c-18 0 -32 5 -32 10 0 6 27 10 60 10 49 0 61 -3 70 -20 6 -11 17 -17 24 -14
8 3 25 -1 38 -9 13 -8 43 -15 68 -15 25 -1 38 2 30 5 -8 3 -19 12 -23 19 -4 8
-15 14 -24 14 -8 0 -13 6 -10 13 5 15 -29 41 -42 33 -5 -3 -43 1 -86 9 -86 17
-149 19 -141 6 3 -5 -7 -11 -22 -14 -15 -3 -28 -1 -30 4 -2 5 -10 9 -18 9 -17
0 -19 17 -1 23 24 10 -179 7 -216 -4 -41 -11 -114 -20 -162 -20 -39 0 -79 -8
-72 -16 8 -7 -59 -53 -77 -53 -8 0 -16 -9 -19 -20 -3 -11 -10 -20 -17 -20 -7
0 -9 8 -5 20 8 24 -18 38 -39 21 -10 -9 -15 -8 -20 4 -8 21 -36 19 -36 -2 0
-10 -5 -25 -10 -33 -9 -13 -12 -13 -23 2 -17 22 -83 34 -102 18 -8 -7 -22 -10
-30 -6 -11 4 -15 -2 -15 -24 0 -31 -15 -48 -24 -28 -3 9 -11 6 -24 -9 -11 -13
-27 -23 -35 -23 -20 0 -38 -24 -31 -43 8 -22 -15 -32 -30 -11 -9 12 -15 14
-20 6 -4 -7 -4 -16 -1 -22 3 -5 3 -10 -2 -10 -4 0 -9 -23 -10 -52 -1 -37 3
-55 15 -64 23 -17 24 -44 1 -44 -10 0 -19 5 -19 10 0 6 -6 10 -14 10 -10 0
-16 -13 -18 -37 -3 -41 -18 -51 -41 -29 -19 20 -74 11 -80 -13 -3 -11 -5 -9
-6 7 0 12 -6 22 -11 22 -6 0 -8 -16 -6 -37 3 -24 -1 -45 -10 -57 -14 -20 -14
-20 -29 0 -17 22 -19 44 -5 44 6 0 10 5 10 11 0 7 -9 9 -23 5 -17 -4 -30 1
-45 19 -12 14 -30 25 -41 25 -10 0 -30 12 -45 27 -29 28 -35 30 -133 40 -35 3
-63 10 -63 15 0 6 -16 8 -37 6 -59 -7 -100 8 -109 40 -5 20 -8 23 -11 10 -5
-22 -17 -23 -33 -3 -7 8 -21 15 -31 15 -11 0 -19 6 -19 13 0 22 -47 39 -72 26
-11 -6 -31 -8 -46 -3 -15 4 -30 7 -34 6 -5 -1 -8 5 -8 13 0 11 -11 15 -39 15
-22 0 -43 5 -46 10 -4 6 -13 7 -24 1 -27 -15 -163 -12 -185 4 -17 13 -17 15
-3 29 18 18 37 21 37 6 0 -5 5 -10 10 -10 6 0 10 6 10 14 0 19 66 86 85 86 11
0 15 5 12 14 -6 15 12 26 44 26 11 0 43 24 72 54 60 60 85 76 121 76 15 0 35
10 47 24 13 15 28 22 40 19 10 -3 49 9 86 27 39 19 86 33 110 35 24 1 49 7 55
13 7 7 21 12 33 12 11 0 26 10 33 21 10 15 17 18 24 11 10 -10 20 -6 66 24 2
1 4 8 5 16 3 14 9 18 32 18 9 0 12 -6 8 -16 -4 -12 2 -9 21 7 16 14 37 23 51
21 13 -2 26 2 30 7 3 6 1 11 -4 11 -6 0 -11 4 -11 9 0 5 9 7 19 4 30 -8 63 15
56 37 -9 28 6 52 25 40 13 -9 13 -11 0 -20 -25 -16 51 -12 80 5 14 8 37 14 52
15 15 0 30 5 33 10 3 6 19 10 35 10 15 0 30 5 32 11 5 14 68 41 68 29 0 -5 7
-7 15 -4 8 4 15 10 15 15 0 5 -7 9 -15 9 -27 0 -16 18 15 25 33 7 31 25 -3 25
-34 0 -55 16 -40 31 10 10 18 10 35 1 13 -6 37 -14 55 -17 35 -7 51 -31 25
-38 -9 -3 -1 -2 18 0 19 2 50 6 68 8 55 6 114 16 168 30 36 9 72 11 118 5 37
-4 91 -5 121 -1 53 7 73 6 227 -19 67 -11 81 -10 101 3 13 8 35 13 49 10 14
-3 35 0 47 6 14 8 21 8 21 1 0 -5 16 -10 36 -10 39 0 94 32 94 56 0 17 5 17
31 4 13 -8 19 -21 19 -46 0 -19 5 -44 10 -55 8 -14 7 -26 -3 -46 -13 -25 -13
-30 11 -67 14 -23 34 -50 44 -61 57 -64 98 -125 98 -145 0 -6 13 -28 28 -48
29 -37 55 -108 46 -123 -8 -14 15 -49 32 -49 8 0 13 -4 10 -9 -4 -5 -1 -11 5
-13 12 -4 49 -93 49 -119 0 -9 15 -36 33 -60 17 -24 33 -51 35 -59 7 -31 64
-165 72 -170 13 -8 110 -243 126 -305 7 -27 24 -88 37 -135 14 -47 25 -92 26
-100 0 -8 10 -55 21 -105 27 -118 24 -98 60 -425 5 -52 15 -127 22 -167 11
-68 13 -72 35 -67 25 7 28 -6 14 -56 l-7 -25 -8 29 c-17 66 -33 -28 -28 -159
2 -39 2 -39 18 -17 8 12 32 31 52 41 21 11 44 30 51 44 7 14 24 30 37 37 48
26 74 81 86 182 9 78 8 107 -6 172 -19 90 -20 116 -6 116 6 0 10 -11 10 -24 0
-14 5 -28 11 -32 11 -7 8 31 -7 91 -4 16 -3 17 5 5 10 -13 12 -13 21 0 5 8 10
21 10 28 0 6 4 12 9 12 5 0 15 15 21 33 11 27 14 29 18 12 2 -11 9 -23 15 -26
16 -11 38 -79 48 -148 10 -71 19 -92 19 -43 0 18 3 32 8 32 8 0 27 65 42 147
13 68 0 156 -39 267 -22 65 -28 93 -21 107 6 10 10 28 10 41 0 13 5 29 11 35
8 8 8 17 0 31 -6 11 -10 32 -9 48 1 16 -2 38 -7 48 -7 17 -5 18 19 12 27 -7
27 -6 21 24 -5 25 -4 29 9 24 9 -3 16 -12 16 -20 0 -15 26 -19 34 -5 3 4 -11
29 -31 55 -36 46 -36 47 -17 65 11 10 26 21 34 24 10 3 6 6 -8 6 -14 1 -22 6
-19 14 2 6 15 11 29 9 21 -2 29 5 42 33 18 37 15 55 -10 55 -14 0 -13 2 0 16
18 18 20 30 6 39 -18 11 2 35 30 35 15 0 34 7 41 16 12 14 10 19 -14 38 -30
24 -35 46 -11 46 30 0 13 53 -23 70 -36 17 -42 29 -15 32 9 0 22 2 27 3 6 2
18 3 29 4 14 1 16 4 7 15 -9 10 -6 17 13 30 14 9 32 16 41 16 15 0 15 2 1 22
-22 31 -20 47 7 57 21 9 21 10 -10 21 -18 7 -33 16 -33 20 0 4 -11 11 -25 14
-16 4 -25 13 -25 26 0 11 -4 20 -10 20 -5 0 -10 6 -10 14 0 15 21 26 51 26 23
0 25 16 3 24 -13 5 -15 15 -11 42 5 31 1 43 -28 79 -19 23 -35 46 -35 50 0 5
-9 18 -20 30 -24 25 -17 65 11 65 29 0 22 29 -8 36 -15 4 -34 14 -42 22 -13
13 -13 16 2 27 18 13 23 35 8 35 -5 0 -16 12 -26 26 -14 21 -14 28 -4 35 9 5
5 10 -14 14 -15 4 -27 12 -27 17 0 6 9 8 20 5 15 -4 20 0 20 14 0 10 -4 19
-10 19 -13 0 -60 52 -60 67 0 7 7 13 15 13 38 0 -1 111 -44 125 -12 3 -22 13
-22 21 -1 8 -2 20 -3 27 -1 6 -16 23 -34 37 -22 16 -32 30 -29 42 3 11 -2 20
-14 23 -10 4 -19 10 -19 14 0 5 -13 14 -28 20 -20 9 -31 23 -39 52 -6 22 -7
42 -3 44 5 3 10 0 12 -6 2 -7 10 -10 17 -8 9 3 6 11 -9 29 -11 13 -18 31 -15
39 6 16 -97 121 -119 121 -7 0 -39 17 -72 39 -65 43 -117 117 -89 127 25 10
16 24 -15 24 -35 0 -38 12 -10 38 19 18 19 18 -10 54 -33 39 -51 48 -162 74
-42 10 -75 21 -73 25 3 4 -2 13 -11 20 -12 10 -20 10 -35 1 -27 -17 -44 -16
-29 3 11 13 7 15 -24 15 -21 0 -47 -5 -58 -11 -50 -27 -75 84 -38 167 33 75
22 119 -30 126 -17 2 -31 14 -44 41 -10 21 -35 49 -55 61 -20 13 -48 39 -61
59 -13 19 -44 45 -69 57 -26 12 -69 37 -98 56 -28 19 -56 34 -61 34 -6 0 -21
13 -35 30 -14 16 -61 48 -104 71 -43 23 -94 52 -113 64 -51 31 -157 67 -179
60 -25 -8 -86 20 -148 66 -29 21 -62 39 -74 39 -12 0 -45 13 -73 29 -28 15
-76 39 -106 51 -30 13 -68 32 -84 43 -40 28 -166 40 -183 18 -10 -14 -17 -14
-55 -2 -23 7 -83 17 -133 22 -120 12 -172 25 -197 49 -12 11 -38 22 -57 26
-20 3 -54 13 -76 21 -22 9 -65 18 -95 19 -30 1 -71 5 -90 8 -19 3 -81 10 -137
15 -56 5 -105 11 -110 13 -4 2 -19 2 -32 0z m159 -42 c0 -5 -7 -10 -15 -10 -8
0 -15 5 -15 10 0 6 7 10 15 10 8 0 15 -4 15 -10z m2248 -876 c9 -4 -12 -54
-23 -54 -17 0 -29 32 -14 40 8 6 8 9 0 14 -21 14 -11 26 12 14 12 -7 23 -14
25 -14z m87 -55 c11 -16 -4 -59 -20 -59 -10 0 -15 10 -15 28 0 39 20 56 35 31z
m-4618 -586 c-9 -9 -20 -14 -24 -10 -3 4 2 14 13 21 25 19 33 10 11 -11z m73
20 c-1 -11 -26 -43 -34 -43 -10 0 -7 25 6 38 13 13 28 16 28 5z m3700 -663 c0
-5 -2 -10 -4 -10 -3 0 -8 5 -11 10 -3 6 -1 10 4 10 6 0 11 -4 11 -10z m630
-870 c0 -5 -4 -10 -10 -10 -5 0 -10 5 -10 10 0 6 5 10 10 10 6 0 10 -4 10 -10z
m-1590 -450 c0 -5 -4 -10 -9 -10 -6 0 -13 5 -16 10 -3 6 1 10 9 10 9 0 16 -4
16 -10z m-1040 -329 c0 -5 21 -8 46 -7 38 1 54 -4 82 -26 19 -16 38 -28 42
-28 4 0 11 -11 14 -25 4 -16 11 -22 21 -19 10 4 15 0 15 -15 0 -13 6 -21 17
-21 14 0 13 -3 -6 -21 -29 -27 -22 -45 17 -41 27 3 31 -1 37 -27 4 -17 13 -31
21 -31 8 0 14 -3 14 -8 0 -4 14 -13 30 -20 17 -8 27 -18 24 -23 -3 -6 -20 -2
-40 10 -18 11 -52 25 -75 31 -23 6 -52 23 -65 37 -13 14 -27 23 -31 20 -3 -4
-1 -7 5 -7 7 0 12 -5 12 -10 0 -6 -10 -8 -22 -5 -13 2 -50 7 -83 10 -73 7
-103 11 -132 18 -13 4 -23 1 -23 -5 0 -6 -9 -3 -20 7 l-20 18 22 24 c12 13 17
23 11 23 -10 0 -33 50 -33 71 0 5 9 9 20 9 11 0 20 7 20 15 0 11 -12 15 -42
16 l-43 1 51 8 c28 4 60 12 70 18 23 14 44 15 44 3z m-240 -71 c0 -5 -7 -7
-15 -4 -8 4 -15 8 -15 10 0 2 7 4 15 4 8 0 15 -4 15 -10z m2674 -68 c-18 -28
-41 -27 -41 2 0 14 3 23 8 21 4 -3 11 0 14 6 5 8 10 8 18 0 8 -8 9 -16 1 -29z
m-2579 -42 c3 -5 1 -10 -4 -10 -6 0 -11 5 -11 10 0 6 2 10 4 10 3 0 8 -4 11
-10z m2543 -69 c3 -21 1 -23 -25 -17 -15 4 -30 11 -33 15 -3 4 -14 13 -25 19
-16 9 -11 11 30 8 44 -2 50 -5 53 -25z m-128 -1 c0 -12 -7 -20 -17 -20 -15 0
-16 -2 -3 -10 23 -15 -18 -12 -55 4 l-30 13 38 7 c20 4 37 11 37 16 0 6 7 10
15 10 8 0 15 -9 15 -20z m50 6 c0 -3 -4 -8 -10 -11 -5 -3 -10 -1 -10 4 0 6 5
11 10 11 6 0 10 -2 10 -4z m-1940 -266 c0 -5 -9 -10 -20 -10 -11 0 -20 5 -20
10 0 6 9 10 20 10 11 0 20 -4 20 -10z m-85 -20 c3 -6 -4 -10 -17 -10 -18 0
-20 2 -8 10 19 12 18 12 25 0z m-1255 -20 c0 -5 -2 -10 -4 -10 -3 0 -8 5 -11
10 -3 6 -1 10 4 10 6 0 11 -4 11 -10z m1320 -4 c0 -3 -4 -8 -10 -11 -5 -3 -10
-1 -10 4 0 6 5 11 10 11 6 0 10 -2 10 -4z"/>
<path d="M6538 11033 c7 -3 16 -2 19 1 4 3 -2 6 -13 5 -11 0 -14 -3 -6 -6z"/>
<path d="M6845 14930 c4 -6 11 -8 16 -5 14 9 11 15 -7 15 -8 0 -12 -5 -9 -10z"/>
<path d="M8880 12035 c0 -16 16 -20 24 -6 3 5 -1 11 -9 15 -9 3 -15 0 -15 -9z"/>
<path d="M9078 11913 c7 -3 16 -2 19 1 4 3 -2 6 -13 5 -11 0 -14 -3 -6 -6z"/>
<path d="M9150 11900 c0 -5 4 -10 9 -10 6 0 13 5 16 10 3 6 -1 10 -9 10 -9 0
-16 -4 -16 -10z"/>
<path d="M9271 11897 c-16 -16 -14 -30 3 -24 8 3 20 0 26 -8 6 -8 24 -17 40
-20 16 -3 34 -13 41 -21 16 -20 41 -18 37 4 -2 9 -17 24 -33 32 -17 8 -31 18
-32 23 -2 4 -5 7 -8 8 -2 0 -18 4 -34 9 -19 5 -33 4 -40 -3z"/>
<path d="M9020 11880 c0 -5 5 -10 10 -10 6 0 10 5 10 10 0 6 -4 10 -10 10 -5
0 -10 -4 -10 -10z"/>
<path d="M6951 11794 c0 -11 3 -14 6 -6 3 7 2 16 -1 19 -3 4 -6 -2 -5 -13z"/>
<path d="M7165 11690 c-3 -5 1 -10 10 -10 9 0 13 5 10 10 -3 6 -8 10 -10 10
-2 0 -7 -4 -10 -10z"/>
<path d="M7522 11620 c0 -14 2 -19 5 -12 2 6 2 18 0 25 -3 6 -5 1 -5 -13z"/>
<path d="M7570 11596 c0 -9 30 -14 35 -6 4 6 -3 10 -14 10 -12 0 -21 -2 -21
-4z"/>
<path d="M8000 11160 c0 -19 3 -21 12 -12 9 9 9 15 0 24 -9 9 -12 7 -12 -12z"/>
<path d="M8402 10761 c2 -7 7 -12 11 -12 12 1 9 15 -3 20 -7 2 -11 -2 -8 -8z"/>
<path d="M8640 10700 c0 -5 5 -10 10 -10 6 0 10 5 10 10 0 6 -4 10 -10 10 -5
0 -10 -4 -10 -10z"/>
<path d="M7293 10623 c-21 -7 -15 -33 7 -33 11 0 20 6 20 14 0 18 -11 25 -27
19z"/>
<path d="M7260 10570 c0 -5 5 -10 10 -10 6 0 10 5 10 10 0 6 -4 10 -10 10 -5
0 -10 -4 -10 -10z"/>
<path d="M5500 10220 c0 -11 5 -20 10 -20 6 0 10 9 10 20 0 11 -4 20 -10 20
-5 0 -10 -9 -10 -20z"/>
<path d="M5500 10166 c0 -8 5 -18 10 -21 6 -3 10 3 10 14 0 12 -4 21 -10 21
-5 0 -10 -6 -10 -14z"/>
<path d="M10252 10082 c-47 -7 -128 -110 -105 -133 12 -12 86 39 112 78 26 41
24 59 -7 55z"/>
<path d="M7193 9948 c-22 -29 -24 -38 -7 -31 12 4 15 3 10 -5 -4 -7 -13 -12
-21 -12 -8 0 -22 -13 -31 -29 -10 -17 -21 -28 -25 -25 -5 3 -17 -4 -29 -16
-11 -11 -27 -20 -35 -20 -18 0 -19 -12 -3 -28 17 -17 -9 -34 -37 -26 -19 6
-19 5 3 -18 22 -24 22 -25 3 -42 -31 -28 -63 -131 -57 -179 3 -23 3 -36 0 -29
-8 18 -27 15 -20 -4 4 -9 1 -23 -5 -30 -10 -12 -19 -88 -20 -176 -1 -42 -6
-46 -25 -20 -13 16 -13 16 -14 0 0 -10 -7 -18 -15 -18 -9 0 -15 -9 -15 -21 0
-17 -5 -20 -24 -17 -21 4 -23 3 -13 -13 6 -10 8 -22 4 -26 -5 -4 -12 -1 -16 6
-13 21 -146 5 -200 -25 -53 -29 -57 -29 -64 -4 -3 12 -14 20 -27 20 -26 0 -57
15 -88 43 -17 16 -37 21 -85 22 -34 1 -70 -2 -79 -7 -14 -7 -18 -5 -18 11 0
11 5 21 12 23 7 3 8 10 4 17 -7 10 -10 10 -16 1 -5 -9 -9 -9 -14 -1 -4 6 -2
11 3 11 6 0 11 7 11 15 0 11 -11 15 -40 15 -22 0 -40 -4 -40 -9 0 -5 -8 -12
-17 -14 -16 -4 -17 -5 -1 -6 15 -1 14 -4 -6 -23 -13 -13 -32 -28 -42 -34 -11
-6 -20 -21 -22 -33 -3 -17 -10 -21 -38 -21 -34 0 -34 0 -34 -47 0 -45 0 -46
-20 -28 -11 10 -17 21 -15 25 3 5 -3 7 -12 6 -10 -2 -21 2 -25 8 -4 6 -8 -5
-8 -24 0 -26 -10 -47 -41 -82 -35 -42 -46 -48 -79 -48 -21 0 -40 -4 -42 -9 -1
-4 -13 -12 -25 -15 -19 -6 -23 -4 -23 13 0 12 -6 21 -14 21 -8 0 -17 6 -20 13
-3 6 -4 -9 -3 -36 1 -28 6 -46 13 -43 5 2 11 -11 12 -31 2 -19 9 -45 16 -56 8
-12 14 -35 14 -50 0 -15 6 -35 14 -45 7 -9 15 -30 17 -47 2 -16 8 -36 13 -42
8 -10 6 -13 -7 -13 -9 0 -15 -5 -13 -11 2 -6 7 -10 12 -9 13 3 29 -29 33 -68
2 -19 10 -50 18 -68 8 -19 12 -41 9 -48 -3 -8 -1 -17 5 -21 6 -3 11 -15 11
-26 0 -11 7 -22 15 -25 8 -4 15 -15 15 -25 0 -10 5 -19 12 -19 9 0 9 -3 0 -12
-17 -17 -15 -28 7 -28 12 0 23 -11 30 -30 5 -16 15 -30 20 -30 6 0 11 -13 11
-30 0 -19 5 -30 14 -30 9 0 12 -7 9 -18 -2 -10 7 -29 21 -45 14 -16 26 -30 26
-33 0 -9 129 -172 217 -274 90 -104 193 -243 193 -262 0 -9 6 -21 13 -25 6 -4
13 -17 15 -28 1 -11 4 -24 6 -30 1 -5 8 -29 15 -52 6 -23 16 -45 21 -48 6 -3
10 -15 10 -26 0 -11 -4 -17 -10 -14 -29 18 -285 -236 -435 -430 -16 -22 -42
-53 -56 -70 -26 -30 -141 -199 -236 -348 -29 -45 -61 -95 -72 -112 -77 -121
-164 -253 -177 -270 -8 -11 -27 -40 -41 -65 -15 -25 -40 -63 -58 -85 -17 -22
-39 -53 -50 -70 -10 -16 -22 -34 -27 -40 -5 -5 -29 -38 -53 -72 -25 -35 -49
-63 -54 -63 -4 0 -39 -17 -77 -38 -38 -21 -132 -66 -209 -101 -77 -35 -176
-80 -220 -101 -44 -21 -111 -52 -150 -70 -92 -43 -452 -223 -492 -246 -150
-88 -217 -138 -318 -239 -61 -60 -124 -130 -140 -155 -45 -68 -97 -132 -130
-160 -53 -44 -145 -143 -145 -155 0 -3 -5 -11 -10 -18 -38 -43 -161 -250 -223
-372 -66 -133 -111 -297 -127 -470 -14 -147 -26 -232 -50 -340 -11 -49 -26
-144 -35 -210 -25 -198 -36 -267 -51 -330 -8 -33 -24 -136 -35 -230 -32 -257
-35 -276 -68 -475 -17 -102 -41 -222 -55 -267 -14 -45 -32 -128 -40 -185 -9
-57 -25 -148 -35 -203 -22 -121 -46 -264 -61 -365 -6 -41 -15 -88 -20 -105 -5
-16 -25 -95 -44 -175 -19 -80 -58 -237 -86 -350 -28 -113 -55 -223 -60 -245
-5 -22 -12 -48 -15 -57 -7 -17 34 -18 765 -18 700 0 772 1 766 16 -3 9 -6 20
-6 26 0 6 -6 8 -14 5 -17 -7 -31 22 -17 36 17 17 47 -3 65 -43 13 -31 23 -40
42 -40 14 0 27 7 31 17 4 10 20 31 37 47 l30 29 27 -33 c16 -18 27 -38 26 -44
-1 -8 363 -12 1306 -14 1244 -2 1307 -1 1298 15 -5 10 -23 32 -40 48 -17 17
-31 37 -31 47 0 21 66 60 105 62 l30 1 -3 -88 -3 -87 378 0 378 0 3 94 c2 51
-1 111 -6 132 -18 69 -23 131 -11 160 6 16 11 80 11 142 1 62 5 115 10 118 9
6 10 -4 13 -81 1 -27 8 -81 14 -120 7 -38 12 -74 12 -80 0 -5 -4 -44 -7 -86
-5 -54 -1 -107 11 -178 l18 -101 45 0 c38 0 43 2 37 18 -3 9 -14 52 -22 95
-15 72 -15 85 1 165 20 105 20 147 2 234 -15 67 -14 82 6 151 13 43 19 46 33
14 13 -30 52 -34 76 -8 27 28 92 32 137 9 36 -19 49 -54 67 -183 9 -66 25
-140 36 -164 11 -26 19 -66 19 -101 0 -69 24 -153 57 -197 l24 -33 100 0 c88
0 99 2 99 18 -1 21 -33 59 -82 95 -62 46 -104 203 -63 237 19 16 81 7 106 -16
23 -21 45 -88 59 -184 13 -88 30 -150 41 -150 10 0 22 40 19 61 -6 38 1 69 15
69 17 0 21 -55 5 -65 -6 -3 -10 -19 -10 -36 0 -28 2 -29 44 -29 36 0 45 4 49
21 7 26 -10 76 -29 83 -24 9 -17 52 11 64 75 34 165 -20 165 -100 1 -63 6 -68
88 -68 l75 0 -7 85 c-4 47 -4 85 -1 85 3 0 20 -8 38 -17 30 -16 30 -18 10 -21
-21 -3 -23 -9 -23 -68 0 -54 3 -64 18 -64 14 0 16 8 14 50 -3 30 0 50 6 50 21
0 62 -20 62 -30 0 -7 -6 -8 -19 0 -28 14 -31 13 -31 -13 0 -44 26 -55 138 -56
l104 -2 -6 28 c-3 15 -8 48 -11 73 l-6 45 16 -34 c8 -18 16 -50 16 -70 l2 -36
6 40 c6 34 8 37 14 18 4 -11 14 -24 22 -27 8 -3 15 -12 15 -21 0 -13 13 -15
76 -14 l76 2 -7 51 c-10 73 -17 371 -8 363 3 -4 14 -81 24 -171 25 -247 25
-246 60 -246 l29 0 -6 93 c-3 50 -12 111 -20 135 -8 23 -14 59 -14 78 0 19 -7
48 -15 64 -9 17 -13 30 -10 30 3 0 -3 10 -15 22 -11 12 -20 29 -20 39 0 9 -9
28 -20 42 -20 25 -27 67 -12 67 15 0 30 -16 37 -40 7 -24 18 -52 50 -124 8
-19 24 -85 35 -148 11 -62 29 -144 38 -183 16 -59 22 -71 42 -73 17 -3 21 0
17 12 -3 8 -2 18 3 21 5 3 11 -4 15 -15 6 -19 15 -20 250 -20 l244 0 -18 47
c-11 27 -23 75 -29 108 -15 92 -33 148 -53 171 -28 31 -24 35 34 32 37 -2 51
-7 49 -17 -1 -7 15 -50 37 -95 42 -86 85 -186 96 -223 6 -21 12 -23 83 -23
l76 0 -26 28 c-26 29 -58 91 -58 114 0 8 -16 41 -36 74 -39 64 -74 130 -74
139 0 3 19 5 43 5 24 0 47 4 52 9 6 5 38 12 72 16 l62 7 12 -44 c6 -23 22 -65
34 -93 28 -60 37 -95 23 -92 -10 2 -25 -33 -48 -111 -14 -43 -7 -68 11 -42 8
11 12 12 16 3 3 -9 34 -13 104 -13 88 0 99 2 97 17 -2 33 2 78 10 90 4 6 19
15 35 18 22 6 28 3 36 -16 4 -13 11 -23 15 -21 16 6 25 1 20 -11 -3 -8 2 -20
11 -27 8 -7 15 -21 15 -31 0 -19 37 -19 1379 -19 1026 0 1380 3 1383 11 3 9 9
9 25 0 16 -8 268 -11 932 -11 l911 0 0 2390 c0 2187 -1 2390 -16 2390 -15 0
-47 19 -131 78 -15 11 -86 59 -158 106 -155 103 -286 194 -299 206 -5 5 -15
58 -22 119 -7 60 -19 124 -28 143 -46 96 -167 166 -336 194 -71 11 -111 25
-207 73 -65 33 -158 75 -208 94 l-90 34 -35 66 c-19 36 -44 76 -55 89 -11 13
-36 46 -55 73 -19 28 -46 61 -60 75 -118 116 -205 193 -241 216 -69 43 -210
110 -270 128 -71 22 -193 13 -264 -19 -100 -46 -120 -47 -183 -15 -86 43 -140
60 -217 67 -52 4 -89 15 -145 43 l-75 37 -205 2 c-113 1 -284 9 -380 18 -103
9 -224 13 -294 11 l-119 -5 -63 58 c-35 32 -74 61 -89 65 -28 7 -31 5 -131
-78 -73 -62 -105 -71 -184 -48 -19 5 -77 13 -130 16 -102 7 -158 26 -214 74
-17 15 -65 46 -106 69 -84 48 -119 88 -146 171 -10 30 -33 78 -51 107 -18 29
-33 54 -33 57 0 3 -13 24 -29 48 -16 24 -40 66 -53 93 -37 78 -103 188 -201
335 -49 74 -103 162 -119 194 -43 85 -78 136 -94 136 -8 0 -27 -18 -42 -40
-20 -30 -32 -38 -47 -33 -28 8 -30 12 -17 25 7 7 12 22 12 35 0 13 5 23 10 23
6 0 10 11 10 24 0 13 7 29 15 36 8 7 15 22 15 34 0 35 12 66 24 66 11 0 36 65
36 95 0 19 21 57 38 68 6 4 12 21 12 37 0 17 4 30 9 30 5 0 7 9 4 20 -3 11 0
27 7 35 7 8 10 21 7 30 -4 8 -2 17 4 21 6 3 8 13 5 21 -4 9 -1 22 5 29 8 10 8
14 0 14 -6 0 -11 17 -11 40 0 22 5 40 10 40 16 0 12 27 -5 34 -8 3 -15 15 -15
26 0 11 -4 20 -10 20 -5 0 -10 11 -10 25 0 23 -4 25 -40 25 -28 0 -40 4 -40
14 0 8 4 16 10 18 6 2 6 8 0 18 -8 13 -10 12 -10 -2 0 -14 -9 -18 -40 -18 -22
0 -40 4 -40 9 0 16 -61 71 -78 71 -19 1 -82 54 -82 70 0 5 -16 10 -35 10 -34
0 -35 1 -35 39 0 33 4 40 23 44 19 4 18 4 -5 6 -27 1 -28 -1 -28 -48 0 -44 -2
-49 -20 -44 -11 3 -20 13 -20 22 0 9 -5 22 -12 29 -6 6 -11 33 -9 61 2 50 2
50 -36 60 -21 6 -44 11 -50 11 -7 0 -13 5 -13 10 0 6 7 10 15 10 8 0 15 4 15
9 0 13 -35 20 -53 10 -17 -10 -32 4 -22 21 3 5 -7 12 -22 16 -15 3 -41 10 -56
16 -22 9 -31 8 -37 -2 -4 -7 -23 -14 -42 -15 -49 -3 -98 -16 -98 -26 0 -17
-35 -49 -53 -49 -24 0 -47 -24 -47 -49 0 -11 -9 -25 -20 -31 -11 -6 -19 -16
-17 -22 1 -6 -4 -13 -10 -15 -7 -3 -13 0 -13 6 0 6 -9 11 -20 11 -22 0 -28
-35 -7 -43 6 -3 -2 -6 -18 -6 -17 -1 -36 -6 -43 -13 -9 -9 -12 -6 -12 16 0 21
-4 27 -17 24 -10 -2 -17 -10 -15 -17 5 -22 -19 -41 -52 -41 -17 0 -39 -7 -49
-14 -10 -8 -27 -11 -39 -8 -13 3 -24 -1 -29 -11 -5 -9 -17 -13 -28 -10 -10 3
-22 0 -25 -6 -4 -6 -2 -11 3 -11 24 0 9 -17 -25 -29 -30 -11 -38 -11 -46 0 -7
11 -8 9 -4 -4 3 -10 6 -21 6 -23 0 -2 8 -4 17 -4 12 0 14 -3 6 -11 -8 -8 -17
-8 -33 1 -16 9 -29 9 -48 1 -15 -6 -54 -10 -87 -10 -33 1 -96 -2 -140 -5 -44
-3 -106 -3 -137 0 -58 6 -58 6 -58 39 0 45 42 61 74 30 14 -14 17 -14 33 5 20
23 53 27 53 5 0 -19 24 -19 40 -1 6 8 28 16 48 18 31 3 37 7 36 26 0 12 3 22
8 22 4 0 8 18 8 40 0 29 4 40 15 40 8 0 15 5 15 10 0 6 -4 10 -9 10 -6 0 -13
-4 -16 -10 -11 -18 -35 -11 -35 10 0 26 47 71 66 63 10 -4 14 4 14 29 0 37 15
58 41 58 9 0 19 6 22 14 6 16 122 76 147 76 8 0 33 17 56 38 60 55 174 189
167 196 -4 4 3 13 15 22 37 26 27 51 -17 44 -8 -1 -28 15 -45 34 -46 54 -115
76 -223 70 -72 -4 -95 -10 -137 -34 -103 -59 -138 -72 -150 -56 -16 21 -66 32
-66 15 0 -10 -3 -10 -12 -1 -19 19 -48 15 -48 -8 0 -22 -29 -27 -47 -9 -8 8
-17 8 -31 0 -27 -15 -75 -14 -90 1 -8 8 -12 9 -12 1 0 -8 -10 -7 -30 3 -16 9
-34 13 -40 9 -6 -4 -7 1 -3 11 5 14 3 15 -15 5 -30 -16 -63 -14 -77 5 -9 13
-19 15 -41 9 -16 -5 -33 -7 -38 -6 -4 1 -14 -3 -22 -9 -7 -7 -37 -15 -66 -20
-29 -5 -80 -16 -113 -25 -33 -9 -74 -17 -92 -19 -28 -3 -33 0 -38 24 -7 31 3
61 37 111 14 19 28 47 32 62 3 15 11 27 16 27 21 0 38 69 37 153 0 86 -9 106
-34 75z m1575 -920 c-6 -18 -28 -21 -28 -4 0 9 7 16 16 16 9 0 14 -5 12 -12z
m432 -33 c0 -8 -4 -15 -9 -15 -5 0 -11 7 -15 15 -3 9 0 15 9 15 8 0 15 -7 15
-15z m-3437 -126 l-7 -34 -8 30 c-9 35 -2 63 12 49 6 -6 7 -25 3 -45z m2791
-247 c3 -5 18 -7 35 -4 22 3 32 -1 41 -18 9 -17 17 -20 36 -16 18 5 32 0 52
-19 15 -14 34 -25 44 -25 9 0 23 -6 30 -13 7 -8 27 -17 43 -22 l30 -8 -25 -7
c-23 -8 -23 -8 8 -9 31 -1 32 -3 34 -43 0 -24 0 -55 -1 -70 -2 -20 2 -28 13
-28 18 0 57 -20 67 -33 3 -5 10 -7 15 -5 5 1 14 -11 19 -29 11 -32 11 -32 24
-10 14 21 14 21 21 2 4 -11 5 -25 3 -31 -2 -6 3 -14 12 -18 9 -3 14 -10 10
-15 -7 -12 7 -21 39 -23 17 -2 25 -7 21 -16 -2 -7 0 -23 7 -35 22 -43 25 -52
21 -64 -3 -7 -11 -13 -19 -13 -8 0 -14 -4 -14 -10 0 -5 6 -10 13 -10 7 0 18
-9 25 -20 10 -17 10 -21 -2 -26 -8 -3 -20 -3 -26 1 -5 3 -10 -1 -10 -9 0 -8
10 -16 23 -18 27 -4 24 -23 -3 -22 -14 0 -20 -6 -20 -20 0 -17 2 -18 10 -6 9
13 11 13 20 0 20 -30 11 -45 -25 -41 -5 0 -21 -24 -34 -54 -13 -30 -30 -55
-37 -55 -8 0 -14 -7 -14 -15 0 -8 -11 -22 -25 -31 -14 -9 -25 -22 -25 -29 0
-8 -7 -21 -16 -29 -8 -9 -16 -25 -17 -36 -1 -12 -8 -20 -19 -20 -16 0 -108
-86 -108 -101 0 -10 -78 -59 -95 -59 -8 0 -15 -4 -15 -9 0 -5 -15 -13 -32 -16
-18 -4 -37 -11 -43 -15 -5 -4 -57 -10 -114 -12 -95 -5 -104 -3 -108 13 -6 21
-23 26 -23 7 0 -6 -9 -3 -20 7 -17 15 -24 16 -46 7 -13 -7 -34 -12 -44 -12
-11 0 -20 -4 -20 -10 0 -15 -97 -13 -103 3 -4 8 -6 7 -6 -3 -1 -23 -110 -20
-123 3 -5 10 -15 17 -23 17 -7 0 -15 6 -18 13 -3 8 -10 4 -23 -11 -19 -24 -53
-22 -55 2 0 6 -16 24 -36 40 -28 24 -36 27 -44 15 -7 -11 -12 -12 -29 -1 -11
6 -28 12 -37 12 -10 0 -41 16 -70 36 -29 20 -67 37 -85 39 -21 1 -34 8 -36 19
-2 9 1 16 7 16 6 0 11 5 11 10 0 6 -18 10 -40 10 -22 0 -40 5 -40 10 0 6 -7
10 -16 10 -9 0 -18 9 -21 20 -4 16 -14 20 -49 20 l-44 0 0 40 0 40 43 1 c23 1
34 3 25 6 -12 3 -18 14 -18 34 0 25 4 29 28 30 17 1 20 3 9 6 -27 7 -9 23 27
23 40 0 71 21 63 44 -4 11 -1 16 11 16 9 0 28 9 41 19 l24 19 -21 6 c-12 4
-22 13 -22 20 0 15 116 31 144 20 10 -4 16 -1 16 8 0 8 10 14 28 13 26 0 27 1
25 51 -2 40 1 53 13 58 9 3 19 4 24 1 4 -3 12 1 18 8 8 10 5 13 -15 15 -15 1
-28 4 -31 6 -2 3 0 40 4 83 4 43 9 70 12 61 3 -14 7 -15 28 -6 18 8 21 14 12
19 -20 13 21 38 62 39 32 1 33 2 13 12 -13 6 -25 20 -29 30 -3 11 -12 17 -19
14 -19 -7 -38 19 -30 44 3 11 15 20 26 20 15 0 19 7 19 31 0 16 4 28 9 25 4
-3 6 -17 3 -32 -5 -25 -3 -26 29 -19 19 4 37 12 40 17 3 5 9 3 12 -6 5 -11 0
-16 -14 -16 -14 0 -19 -5 -16 -14 4 -9 -5 -21 -19 -31 -27 -17 -24 -35 7 -35
11 0 19 7 19 18 1 16 1 16 11 0 13 -23 79 -25 79 -3 0 8 5 15 10 15 6 0 10 -7
10 -15 0 -8 4 -15 10 -15 13 0 0 32 -18 46 -11 8 -12 13 -4 18 16 9 -8 35 -26
29 -7 -3 -17 8 -24 27 -8 25 -13 29 -19 18 -9 -15 -49 -20 -49 -5 0 4 0 14 0
22 0 9 9 15 24 15 14 0 28 5 32 11 3 6 17 9 30 6 13 -2 24 -1 24 2 0 4 8 7 18
8 9 1 35 6 57 12 22 6 109 10 193 9 84 0 155 2 159 5 9 10 41 9 47 -1z m-660
-90 c3 -5 -1 -9 -9 -9 -8 0 -12 4 -9 9 3 4 7 8 9 8 2 0 6 -4 9 -8z m-454 -172
c0 -3 -10 -11 -21 -18 -23 -15 -47 -3 -35 17 7 11 56 12 56 1z m327 -102 c-2
-13 -4 -3 -4 22 0 25 2 35 4 23 2 -13 2 -33 0 -45z m-87 27 c0 -9 -6 -12 -15
-9 -8 4 -12 10 -9 15 8 14 24 10 24 -6z m98 -125 c15 0 15 -2 2 -10 -15 -9
-30 4 -29 25 0 6 3 4 6 -2 2 -7 12 -13 21 -13z m-301 -540 c3 -13 14 -20 29
-20 13 0 24 -3 24 -8 0 -4 -20 -6 -45 -4 -40 4 -45 7 -45 28 0 30 30 33 37 4z
m1263 -1730 c0 -5 -4 -10 -10 -10 -5 0 -10 5 -10 10 0 6 5 10 10 10 6 0 10 -4
10 -10z m-530 -297 c0 -14 -19 -38 -25 -32 -8 8 5 39 16 39 5 0 9 -3 9 -7z
m-10 -92 c0 -5 5 -11 11 -13 15 -5 0 -38 -18 -38 -8 0 -11 -5 -8 -10 3 -6 -1
-17 -9 -26 -9 -8 -16 -12 -16 -8 0 4 -14 -11 -31 -34 -17 -23 -35 -40 -39 -37
-5 3 -11 1 -14 -4 -4 -5 -27 -19 -54 -32 -26 -12 -87 -47 -137 -77 -49 -29
-116 -67 -150 -84 -33 -17 -83 -45 -110 -63 -28 -17 -62 -35 -76 -38 -28 -7
-48 -39 -30 -45 21 -7 12 -52 -12 -61 -28 -11 -98 -55 -149 -95 -21 -15 -51
-51 -66 -80 -32 -55 -87 -152 -102 -176 -5 -8 -38 -62 -73 -120 -36 -58 -68
-115 -71 -127 -4 -13 -11 -23 -16 -23 -5 0 -10 -7 -12 -15 -6 -30 -75 53 -122
148 -26 50 -62 110 -81 132 -19 22 -35 50 -35 62 0 13 -6 23 -13 23 -8 0 -35
21 -60 47 -35 35 -45 52 -41 69 4 17 0 23 -19 28 -21 5 -24 11 -24 51 0 32 4
46 16 50 9 3 34 21 55 40 22 19 43 35 48 35 4 0 8 8 8 19 0 10 6 24 14 30 8 7
17 23 20 36 4 15 14 25 24 25 10 0 28 7 40 16 17 12 26 13 36 5 9 -8 21 -8 37
-2 13 5 18 10 12 10 -7 1 -13 6 -13 12 0 8 31 10 100 7 55 -2 100 -1 100 2 0
3 18 4 40 2 35 -4 40 -1 40 16 0 12 -8 26 -17 31 -16 9 -14 10 9 11 15 0 30
-4 33 -10 9 -15 34 -12 63 8 15 11 61 34 102 53 41 18 81 39 88 46 7 7 20 13
28 13 8 0 14 4 14 9 0 5 24 17 53 27 28 9 57 20 62 24 16 12 125 12 125 0 0
-5 9 -10 20 -10 11 0 20 7 20 15 0 11 11 15 38 15 20 0 47 3 60 6 18 5 22 2
22 -15 0 -36 24 -23 43 24 19 46 37 59 37 28 0 -13 3 -14 12 -5 15 15 55 16
64 0 8 -13 27 25 28 57 1 14 9 21 29 23 20 3 27 9 27 25 l0 21 20 -22 c11 -12
20 -25 20 -31z m280 20 c0 -6 -4 -13 -10 -16 -5 -3 -10 1 -10 9 0 9 5 16 10
16 6 0 10 -4 10 -9z m-179 -84 c-19 -18 -30 -25 -26 -17 13 25 48 60 54 55 3
-3 -10 -20 -28 -38z m-66 -66 c-3 -6 -11 -11 -17 -11 -6 0 -6 6 2 15 14 17 26
13 15 -4z m-110 -91 c-3 -5 -12 -10 -18 -10 -7 0 -6 4 3 10 19 12 23 12 15 0z
m-2660 -130 c10 -11 15 -23 12 -27 -6 -5 -47 33 -47 44 0 10 19 1 35 -17z
m195 -157 c0 -7 -3 -13 -6 -13 -14 0 -45 22 -54 40 -10 20 -10 20 25 3 19 -9
35 -23 35 -30z m2081 13 c-18 -22 -97 -56 -128 -56 -27 1 -27 1 7 14 19 7 51
22 70 34 41 26 69 30 51 8z m-1919 -102 c38 -25 67 -48 65 -50 -11 -11 -147
69 -147 87 0 15 9 11 82 -37z m5400 -105 c15 -8 17 -13 8 -19 -9 -5 -9 -9 -1
-14 6 -4 11 -2 11 3 0 6 6 11 14 11 17 0 56 -72 56 -104 0 -51 -116 -39 -154
15 -19 27 -31 82 -22 104 6 18 58 20 88 4z m-683 -33 c9 -7 30 -18 46 -23 29
-9 30 -12 36 -84 19 -226 34 -341 48 -364 3 -5 6 -44 6 -85 0 -56 5 -82 18
-102 14 -20 19 -51 22 -135 6 -186 71 -433 154 -586 22 -42 43 -92 46 -111 2
-20 9 -44 14 -54 6 -11 7 -22 4 -26 -3 -3 7 -6 24 -6 74 0 69 53 -23 246 -36
76 -85 193 -107 259 l-41 120 -3 200 c-5 373 -5 377 -31 411 -27 35 -32 118
-11 153 25 39 35 24 44 -69 9 -90 16 -118 37 -137 22 -20 16 -24 73 50 20 26
34 30 88 28 17 -1 27 -7 27 -16 0 -8 4 -15 9 -15 5 0 12 -13 16 -30 4 -16 11
-30 16 -30 6 0 7 -4 4 -10 -11 -18 7 -110 26 -131 11 -12 19 -33 19 -46 0 -12
5 -23 10 -23 6 0 10 -19 10 -43 0 -24 3 -46 6 -50 4 -3 8 -24 9 -45 4 -44 34
-110 76 -163 19 -24 29 -49 29 -70 0 -46 23 -113 65 -189 9 -15 11 -28 5 -35
-11 -14 -9 -144 2 -151 18 -11 6 -24 -19 -21 -47 6 -67 46 -70 141 -2 77 -6
89 -49 172 -25 49 -55 103 -66 121 -23 39 -118 230 -118 238 0 3 -9 25 -19 49
-42 90 -61 148 -61 181 0 65 -21 83 -55 45 -24 -26 -17 -92 19 -190 33 -90 88
-210 96 -210 3 0 6 -8 7 -17 3 -33 23 -74 33 -68 6 3 10 -4 10 -17 0 -13 3
-34 7 -48 l7 -25 7 25 c7 23 7 23 8 -7 1 -17 5 -34 10 -37 4 -3 11 -24 15 -46
3 -22 12 -43 19 -46 14 -5 8 -80 -11 -164 -11 -49 15 -151 54 -212 23 -37 24
-49 1 -95 -20 -43 6 -92 83 -156 46 -38 67 -62 64 -72 -4 -9 0 -15 10 -15 9 0
16 -4 16 -10 0 -5 -7 -10 -15 -10 -8 0 -15 -4 -15 -10 0 -5 9 -10 19 -10 23 0
35 -31 26 -61 -5 -14 -2 -25 6 -30 10 -6 6 -9 -13 -9 -14 0 -28 -5 -30 -11 -6
-19 -54 8 -85 48 -28 35 -53 108 -67 194 -8 46 -67 115 -106 124 -25 5 -34 2
-54 -22 -22 -25 -30 -28 -89 -28 -36 0 -68 3 -72 7 -11 11 -34 128 -35 173 0
22 -7 65 -15 95 -9 30 -20 92 -25 137 -5 46 -19 110 -30 144 -12 34 -19 67
-17 73 9 25 -11 144 -29 171 -16 25 -19 49 -19 150 -1 111 -3 126 -34 205 -93
240 -150 408 -149 435 0 17 -4 41 -11 53 -10 20 -9 23 11 32 33 13 59 12 77
-4z m472 -27 c4 -19 10 -54 13 -79 l6 -45 -67 -30 c-36 -16 -70 -31 -75 -33
-4 -2 -8 34 -8 81 l0 84 40 27 c22 14 40 22 40 16 0 -6 -16 -20 -35 -31 -33
-20 -35 -24 -35 -74 0 -30 4 -57 10 -60 5 -3 28 7 51 22 l41 27 -4 68 c-4 72
11 90 23 27z m-624 -7 c-10 -10 -17 -30 -17 -44 0 -30 24 -81 33 -71 4 3 7 2
8 -3 2 -29 11 -59 18 -64 15 -9 29 -44 35 -90 4 -25 13 -61 21 -80 22 -55 64
-194 80 -264 13 -58 13 -71 -1 -126 -18 -70 -14 -144 11 -204 14 -32 15 -47 6
-82 -19 -74 -14 -103 21 -135 60 -57 74 -229 19 -229 -35 0 -45 32 -56 182 -4
64 -30 128 -51 128 -7 0 -20 -13 -29 -30 -19 -36 -43 -50 -88 -50 -45 0 -68
36 -91 146 -10 43 -31 107 -47 141 -16 34 -29 77 -29 96 0 37 -26 120 -57 182
-22 44 -21 108 2 152 l14 26 15 -38 c9 -21 16 -39 16 -41 0 -8 41 -98 90 -199
86 -177 111 -239 125 -303 8 -35 16 -67 19 -70 12 -11 54 21 59 45 8 44 -8 89
-139 373 -24 52 -58 138 -76 191 l-32 96 27 89 c15 49 27 108 27 131 0 43 24
128 42 151 6 6 17 12 26 12 13 0 13 -2 -1 -18z m588 -34 c3 -40 -18 -78 -45
-78 -16 0 -20 7 -20 38 0 42 6 54 35 70 25 13 26 11 30 -30z m-6174 -129 c38
-30 52 -70 29 -84 -12 -7 -81 26 -92 45 -10 15 5 70 18 70 3 0 24 -14 45 -31z
m5308 11 l47 0 -4 -61 c-3 -42 -14 -79 -33 -116 -23 -44 -29 -68 -29 -120 0
-57 -4 -72 -36 -124 -20 -32 -41 -56 -46 -53 -5 3 -27 -6 -48 -20 -45 -30 -62
-32 -79 -12 -10 12 -8 16 11 21 13 4 30 13 38 20 8 7 27 15 42 19 39 9 53 67
37 144 -9 44 -9 83 1 172 14 138 16 144 36 136 9 -3 37 -6 63 -6z m1021 -57
c0 -6 -8 -9 -20 -6 -23 6 -25 14 -8 31 13 13 28 0 28 -25z m170 -5 c0 -4 -11
-8 -25 -8 -31 0 -33 -17 -3 -22 29 -4 34 -25 9 -33 -26 -8 -26 -20 -2 -44 19
-19 19 -19 -2 -25 -14 -4 -26 0 -34 11 -12 15 -13 14 -13 -9 0 -27 16 -38 53
-38 37 0 5 -17 -45 -24 -44 -7 -48 -5 -48 13 0 23 -20 71 -30 71 -6 0 -30 44
-30 55 0 3 7 5 15 5 8 0 15 4 15 10 0 5 -8 7 -17 3 -15 -5 -16 -3 -5 8 6 7 12
22 12 34 0 20 3 20 75 11 41 -5 75 -13 75 -18z m-2509 -165 c9 -10 28 -26 42
-37 35 -25 67 -93 67 -143 0 -45 -10 -53 -66 -53 -67 0 -122 102 -109 200 6
43 10 50 29 50 12 0 29 -8 37 -17z m-180 -68 c4 -22 9 -62 10 -90 l3 -50 -92
-3 -92 -3 0 89 c0 49 2 91 4 93 3 2 40 4 83 4 l78 0 6 -40z m452 -45 c28 -1
67 -30 50 -37 -7 -3 -13 -9 -13 -15 0 -6 6 -8 14 -5 10 4 17 -4 21 -26 4 -18
12 -45 20 -62 33 -74 45 -108 40 -114 -9 -15 23 -123 41 -137 18 -13 18 -15
-8 -38 -24 -22 -31 -23 -67 -14 -63 16 -86 60 -87 168 0 92 -10 157 -28 179
-6 7 -11 48 -11 90 -1 42 1 61 3 44 2 -26 8 -33 25 -33z m16 46 c9 -11 8 -15
-5 -20 -22 -9 -23 -8 -21 14 2 23 10 25 26 6z m-779 -184 c0 -58 5 -103 14
-120 7 -15 14 -56 15 -92 2 -95 28 -172 71 -210 3 -3 6 -41 7 -84 2 -68 5 -83
26 -105 61 -66 67 -84 67 -182 0 -98 -5 -79 140 -519 12 -36 28 -85 35 -110 8
-25 24 -72 35 -105 11 -33 18 -71 15 -84 -7 -26 18 -71 40 -71 23 0 45 30 45
63 0 18 -50 180 -110 361 -72 216 -110 344 -110 372 0 24 9 67 21 96 18 46 20
65 14 143 -4 50 -13 105 -21 123 -7 18 -11 46 -8 62 8 40 -27 100 -76 128 -59
34 -74 63 -76 149 -1 84 8 99 60 89 76 -14 111 -73 125 -209 9 -86 31 -140 67
-164 18 -12 24 -11 50 9 34 27 103 31 148 8 38 -20 65 -96 67 -193 1 -40 4
-76 8 -82 17 -25 31 -85 32 -140 2 -81 54 -235 79 -235 5 0 9 -31 9 -70 0 -71
7 -93 65 -199 21 -39 23 -53 18 -127 -4 -67 -1 -96 15 -146 11 -35 25 -81 32
-103 27 -97 40 -144 55 -194 9 -30 22 -86 28 -125 6 -39 16 -74 21 -77 13 -9
54 -139 62 -201 6 -41 12 -53 35 -66 l28 -16 -23 -18 c-38 -30 -86 -20 -126
27 -16 19 -31 92 -44 220 -4 32 -11 67 -16 77 -5 10 -7 18 -3 18 3 0 2 6 -3
13 -6 6 -11 41 -11 76 -1 36 -6 67 -11 70 -5 3 -12 22 -16 41 -8 37 -30 83
-54 113 -9 10 -16 47 -18 88 -4 79 -17 110 -68 166 l-35 38 1 95 c2 93 0 100
-74 330 -42 129 -81 244 -86 255 -30 66 -61 180 -61 224 0 42 -4 53 -24 66
-48 32 -76 -10 -58 -87 6 -24 35 -115 65 -203 153 -450 158 -473 128 -560 -30
-85 -27 -141 9 -210 34 -64 36 -83 15 -111 -34 -44 -17 -85 69 -169 66 -64 86
-107 86 -183 0 -50 -27 -74 -74 -65 -75 15 -111 75 -125 211 -10 94 -27 144
-61 180 l-21 23 -35 -31 c-39 -34 -80 -39 -136 -16 -30 13 -70 46 -55 46 3 0
1 15 -4 33 -6 17 -14 70 -19 117 -5 47 -14 108 -20 135 -6 28 -17 86 -24 130
-16 92 -20 104 -57 165 -21 35 -28 60 -30 110 -4 74 -18 117 -49 145 -43 39
-52 71 -45 154 7 77 2 101 -50 286 -28 98 -61 308 -56 354 2 14 8 36 14 50 13
31 15 41 23 110 6 51 7 53 20 30 8 -15 13 -59 14 -117z m980 63 c0 -14 -4 -25
-10 -25 -11 0 -14 33 -3 43 11 11 13 8 13 -18z m50 15 c0 -5 -4 -10 -10 -10
-5 0 -10 5 -10 10 0 6 5 10 10 10 6 0 10 -4 10 -10z m170 -74 c0 -19 -7 -61
-15 -93 -17 -65 -20 -211 -5 -328 15 -125 33 -403 32 -481 -2 -72 14 -114 36
-100 23 14 24 87 7 386 -24 419 -24 423 48 541 31 52 57 104 57 116 0 11 6 23
13 26 17 7 45 -46 52 -98 2 -22 9 -58 15 -80 18 -65 24 -168 25 -379 0 -151
-3 -200 -12 -204 -7 -2 -13 -8 -13 -12 0 -5 -11 -21 -25 -36 -14 -15 -25 -33
-25 -41 0 -8 -5 -11 -11 -7 -6 4 -10 -1 -8 -12 1 -11 -3 -31 -11 -46 -13 -27
-5 -93 8 -71 4 6 8 -10 9 -35 1 -37 -4 -53 -28 -83 -34 -43 -36 -62 -11 -109
23 -45 46 -84 52 -90 3 -3 17 -21 32 -41 19 -26 24 -39 17 -52 -6 -10 -6 -23
-1 -33 9 -16 4 -38 -19 -101 -19 -51 -85 -15 -107 57 -6 19 -13 94 -16 165 -3
72 -11 147 -16 168 -11 38 -40 62 -48 39 -7 -21 -20 -13 -27 16 -13 49 -46
335 -55 464 -4 70 -11 140 -15 157 -4 17 -7 110 -8 207 -1 137 2 177 12 184 8
4 11 15 8 24 -4 9 -1 27 5 41 l11 24 18 -24 c11 -13 19 -39 19 -59z m1772 23
c-3 -28 -7 -37 -13 -28 -13 21 -11 69 4 69 9 0 11 -12 9 -41z m-1970 -47 c-7
-2 -12 -11 -13 -20 0 -11 -4 -8 -10 8 -7 17 -6 31 3 48 l12 24 10 -28 c6 -20
6 -29 -2 -32z m587 -105 l38 -16 7 -76 c4 -41 4 -80 1 -85 -10 -16 -41 -11
-69 11 l-26 20 0 -50 c0 -41 5 -56 29 -83 42 -49 68 -106 81 -179 16 -91 38
-154 61 -175 19 -17 21 -17 58 4 21 12 54 22 72 22 77 0 102 -39 120 -184 5
-43 18 -95 28 -115 10 -20 22 -70 25 -111 6 -54 16 -92 38 -135 25 -48 33 -78
38 -148 5 -70 11 -94 31 -120 22 -30 24 -44 31 -192 9 -230 54 -563 89 -665
10 -30 20 -77 22 -105 2 -40 7 -52 26 -61 50 -25 89 17 76 83 -3 18 -23 71
-45 117 -72 157 -131 534 -108 685 6 39 7 97 3 141 -5 41 -7 122 -6 178 l2
104 -40 36 c-46 42 -71 103 -71 171 0 70 31 90 78 51 21 -18 24 -32 32 -146 7
-92 14 -134 27 -153 12 -19 17 -42 14 -81 -2 -55 37 -309 65 -416 8 -32 28
-89 45 -128 78 -181 79 -187 57 -303 -9 -49 -9 -74 1 -120 15 -66 54 -149 73
-156 10 -3 10 -9 0 -27 -8 -13 -14 -49 -14 -81 0 -33 -2 -59 -4 -59 -2 0 -22
18 -44 40 -45 45 -77 51 -106 19 -50 -55 -116 -60 -155 -11 -19 24 -21 36 -16
108 3 45 1 110 -4 145 -6 35 -11 116 -12 179 -2 103 -5 120 -28 161 -23 42
-25 53 -18 99 11 70 3 103 -37 146 -42 44 -50 75 -36 131 15 56 15 81 -2 145
-17 65 -73 227 -86 250 -6 10 -10 23 -10 29 0 7 -27 81 -61 166 -34 84 -58
160 -55 169 10 26 -4 58 -31 71 -14 7 -23 10 -19 6 3 -3 1 -12 -5 -20 -14 -17
-7 -67 19 -124 11 -24 23 -55 27 -69 3 -14 22 -63 40 -110 18 -47 41 -110 50
-140 10 -30 21 -63 26 -72 5 -10 9 -28 9 -41 0 -13 5 -28 10 -33 6 -6 12 -19
14 -30 2 -10 7 -31 11 -46 4 -16 3 -28 -3 -28 -5 0 -7 -12 -4 -26 3 -19 1 -25
-7 -20 -6 4 -11 1 -11 -7 0 -8 -6 -20 -14 -26 -10 -9 -13 -23 -9 -48 4 -20 1
-38 -5 -42 -12 -7 6 -100 25 -123 18 -21 13 -89 -9 -112 -30 -33 -19 -80 29
-121 12 -11 23 -26 23 -32 0 -6 6 -13 14 -16 21 -8 56 -111 56 -163 0 -34 -6
-51 -25 -69 -33 -34 -65 -31 -108 8 -44 38 -67 114 -67 220 0 94 -17 152 -54
189 -25 26 -32 28 -34 15 -4 -20 -31 -22 -102 -5 -44 10 -57 19 -78 50 -26 41
-31 86 -24 233 2 33 1 134 -1 225 -3 142 -7 172 -25 213 -20 44 -21 51 -7 70
19 28 19 110 -1 162 -32 85 -36 117 -19 162 14 37 17 93 18 356 2 236 6 328
17 377 l15 65 3 -57 c3 -55 4 -57 41 -71z m-557 64 c-2 -23 -8 -41 -13 -41 -5
0 -9 -10 -9 -22 0 -12 -3 -19 -6 -16 -7 8 18 128 26 123 3 -2 4 -22 2 -44z
m1968 20 c0 -5 -7 -11 -15 -15 -15 -5 -20 5 -8 17 9 10 23 9 23 -2z m-2345
-166 l10 -100 -96 -3 c-60 -2 -99 0 -103 7 -4 5 -9 34 -12 63 -2 29 -7 72 -10
96 l-5 43 103 -3 103 -3 10 -100z m385 34 c0 -5 -4 -9 -10 -9 -5 0 -10 7 -10
16 0 8 5 12 10 9 6 -3 10 -10 10 -16z m-1466 -31 c-18 -82 -20 -149 -7 -186
25 -66 26 -72 13 -103 -12 -28 -15 -30 -52 -24 -33 6 -42 4 -55 -14 -33 -48
-126 -60 -137 -18 -5 19 20 70 56 111 5 6 15 20 23 31 13 18 14 15 15 -37 0
-47 3 -58 20 -63 25 -8 59 10 69 38 10 25 -3 126 -21 170 -10 26 -8 31 26 64
20 19 36 42 36 49 0 8 5 14 11 14 7 0 8 -11 3 -32z m1466 -15 c-1 -24 -2 -26
-11 -10 -5 9 -7 22 -4 27 10 17 15 11 15 -17z m-30 -28 c0 -8 -4 -15 -10 -15
-5 0 -7 7 -4 15 4 8 8 15 10 15 2 0 4 -7 4 -15z m-1130 -83 c0 -12 9 -55 21
-95 55 -191 53 -173 29 -263 -29 -110 -28 -153 4 -210 29 -52 33 -91 12 -120
-9 -11 -12 -29 -9 -44 7 -31 56 -89 95 -113 16 -9 32 -25 35 -35 4 -9 15 -28
25 -42 22 -31 29 -143 10 -162 -17 -17 -86 -14 -117 6 -39 26 -64 86 -75 185
-10 93 -41 175 -68 186 -9 3 -27 -5 -41 -19 -15 -14 -37 -27 -51 -28 -21 -3
-25 2 -30 33 -7 38 10 203 22 214 7 7 16 -47 20 -119 4 -50 28 -68 57 -42 26
24 26 54 0 181 -29 139 -29 364 -1 450 11 33 23 74 27 90 l8 30 13 -30 c7 -16
13 -40 14 -53z m984 -103 c62 -4 68 -16 11 -24 -54 -9 -60 -22 -7 -17 48 4 58
-4 67 -55 7 -42 6 -42 -31 -52 -21 -6 -40 -8 -43 -5 -3 3 -12 24 -18 47 l-13
42 5 -49 c3 -27 7 -52 10 -54 2 -3 28 -7 56 -10 41 -4 55 -1 64 12 11 15 13
15 18 -4 7 -27 -1 -30 -98 -33 l-80 -2 -11 100 c-7 69 -7 102 0 107 5 4 13 5
16 3 4 -2 28 -5 54 -6z m934 -10 c-14 -8 -18 -23 -18 -72 0 -88 5 -93 73 -73
43 12 57 21 60 39 4 15 5 12 4 -8 -2 -28 -7 -32 -71 -53 -38 -13 -71 -20 -74
-17 -3 3 -8 44 -10 91 -5 89 1 104 38 104 12 -1 11 -3 -2 -11z m62 -28 c0 -5
-11 -11 -25 -13 -28 -6 -35 8 -7 15 28 8 32 7 32 -2z m-22 -71 c4 0 13 5 20
12 6 6 15 8 19 4 10 -10 -25 -36 -49 -36 -14 0 -18 8 -17 33 0 29 1 30 9 10 5
-13 13 -23 18 -23z m-738 -35 c0 -5 -5 -3 -10 5 -5 8 -10 20 -10 25 0 6 5 3
10 -5 5 -8 10 -19 10 -25z m-1473 -59 c12 -38 -6 -116 -28 -116 -12 0 -29 69
-29 117 0 42 1 42 25 31 13 -6 28 -20 32 -32z m2563 -13 c0 -5 -27 -16 -60
-27 l-60 -18 6 -67 c4 -36 10 -70 14 -75 10 -10 107 21 114 37 2 7 5 5 5 -4 1
-17 -71 -57 -111 -62 -26 -3 -35 24 -40 119 l-3 67 50 17 c56 20 85 24 85 13z
m-2731 -75 c-2 -35 -3 -37 -6 -13 -6 40 -15 43 -75 34 -29 -5 -54 -7 -56 -4
-5 5 76 23 111 24 26 1 27 -1 26 -41z m2714 -13 c7 -38 -1 -52 -34 -60 -22 -5
-27 -2 -33 17 -12 47 -7 66 22 76 32 11 37 7 45 -33z m-2749 -17 c11 -43 7
-68 -11 -68 -10 0 -27 -3 -39 -6 -18 -5 -22 0 -27 33 -5 29 -3 41 10 51 27 20
60 15 67 -10z m1483 -38 c43 -26 61 -65 73 -157 15 -114 32 -193 41 -193 5 0
9 -6 9 -13 0 -8 8 -21 18 -31 18 -15 21 -15 45 4 32 25 49 25 71 1 18 -19 22
-44 31 -156 3 -33 10 -73 15 -88 5 -15 7 -34 3 -42 -3 -9 0 -22 7 -30 14 -17
30 -125 18 -125 -4 0 -8 19 -9 43 0 31 -2 37 -9 22 -6 -17 -9 -13 -15 20 -3
22 -10 51 -15 65 -4 14 -13 45 -20 70 -7 25 -16 58 -21 74 -5 16 -9 43 -9 59
0 66 -61 90 -80 33 -15 -47 1 -136 60 -331 5 -16 20 -73 34 -125 14 -52 35
-129 46 -170 26 -92 32 -244 11 -283 -10 -18 -11 -39 -6 -74 5 -26 7 -52 6
-57 -1 -5 8 -32 19 -59 19 -44 20 -55 10 -93 -12 -42 -30 -60 -30 -29 0 8 -9
19 -20 25 -16 9 -18 15 -9 37 5 15 7 38 4 52 -2 14 -6 42 -6 61 -1 19 -13 66
-26 103 -13 38 -21 72 -18 77 3 5 1 11 -4 14 -11 7 -41 106 -44 143 -1 13 -7
27 -13 31 -13 9 -61 161 -70 222 -4 25 -11 53 -16 63 -5 10 -4 33 3 60 32 119
28 224 -11 300 -19 35 -19 40 -4 69 19 37 14 96 -11 130 -10 13 -40 40 -66 61
-52 41 -89 117 -89 182 0 54 41 70 97 35z m-1441 -67 c-15 -16 -146 -21 -146
-5 0 4 25 8 56 9 74 2 84 7 85 45 l2 33 6 -35 c4 -21 3 -40 -3 -47z m-283 -77
c3 -35 13 -81 22 -101 8 -21 15 -52 15 -69 0 -45 20 -103 60 -171 29 -51 35
-70 36 -127 1 -61 6 -73 44 -130 40 -61 42 -65 36 -123 -3 -33 -1 -107 5 -165
18 -182 25 -304 19 -335 -5 -23 -8 -13 -12 40 -5 64 -25 119 -60 162 -6 7 -8
21 -6 31 11 42 -10 134 -40 171 -49 62 -54 77 -47 150 7 78 -11 147 -100 386
-31 83 -59 161 -62 174 -6 25 64 184 77 176 4 -2 10 -33 13 -69z m3186 27 c0
-21 -3 -31 -6 -23 -2 8 -7 21 -9 29 -4 11 -7 12 -16 3 -21 -21 -32 -13 -13 8
29 32 45 25 44 -17z m-69 -13 c0 -5 -5 -10 -11 -10 -5 0 -7 5 -4 10 3 6 8 10
11 10 2 0 4 -4 4 -10z m40 -24 c0 -7 -9 -16 -21 -19 -20 -5 -20 -5 -3 14 20
23 24 23 24 5z m40 -60 c0 -50 -2 -55 -27 -65 -16 -6 -38 -15 -50 -21 -39 -16
-25 4 22 32 41 25 45 31 45 68 0 22 2 40 5 40 3 0 5 -24 5 -54z m-1245 16 c-3
-3 -11 0 -18 7 -9 10 -8 11 6 5 10 -3 15 -9 12 -12z m1205 -7 c0 -14 -8 -29
-20 -35 -16 -9 -20 -8 -20 5 0 8 7 15 15 15 8 0 15 9 15 20 0 11 2 20 5 20 3
0 5 -11 5 -25z m-2879 -41 c22 -23 24 -36 27 -136 l4 -111 -44 34 c-84 65
-123 132 -116 200 6 63 75 70 129 13z m3255 -146 c6 -25 15 -75 18 -110 l7
-64 -97 -12 c-53 -7 -98 -11 -100 -9 -7 7 -34 151 -34 182 0 33 1 34 58 45 31
6 62 13 67 15 6 2 23 3 39 2 27 -2 31 -7 42 -49z m-3615 -108 c48 -140 50
-147 56 -199 4 -40 1 -62 -17 -103 -28 -65 -22 -144 15 -200 29 -44 31 -67 9
-109 -20 -40 -14 -55 55 -125 32 -32 63 -68 68 -79 14 -28 25 -108 15 -121
-15 -22 -92 -58 -102 -48 -6 6 -19 44 -30 85 -30 117 -73 235 -94 258 -16 18
-19 35 -18 93 2 67 -13 120 -58 208 -26 51 -16 208 16 257 8 13 14 47 14 82 0
122 30 122 71 1z m704 -11 c4 -50 3 -94 -1 -99 -5 -4 -35 -11 -66 -15 -43 -5
-58 -3 -58 6 0 7 2 10 5 7 3 -3 27 1 53 7 l47 12 1 64 c2 87 -1 92 -47 86 -22
-3 -39 -3 -39 -1 0 8 45 23 71 23 27 1 27 0 34 -90z m2555 29 c10 -24 22 -68
26 -98 11 -89 32 -171 48 -189 9 -10 16 -27 16 -38 0 -72 62 -224 114 -280 21
-22 26 -38 26 -78 0 -44 4 -67 21 -135 2 -8 10 -21 17 -28 6 -7 12 -33 12 -58
0 -24 5 -44 10 -44 6 0 10 5 10 12 0 6 2 9 5 7 2 -3 2 -15 -2 -27 -4 -17 -9
-20 -18 -12 -18 15 -24 1 -20 -43 3 -41 0 -44 -27 -20 -22 20 -23 31 -1 55 15
17 15 19 0 31 -9 6 -21 34 -27 61 -6 27 -19 61 -29 75 -36 51 -139 267 -170
356 -40 117 -72 255 -77 330 -2 38 -9 64 -19 71 -19 14 -19 27 0 64 24 47 61
41 85 -12z m-2600 -16 c0 -12 -3 -13 -11 -5 -6 6 -18 9 -25 6 -8 -3 -14 0 -14
5 0 11 30 21 43 15 4 -2 7 -12 7 -21z m-8 -64 c-5 -5 -20 -8 -33 -6 -24 4 -24
4 4 16 15 6 28 17 28 24 1 7 3 5 6 -6 3 -10 0 -23 -5 -28z m-260 -53 c-4 -34
-11 -42 -25 -29 -5 6 19 64 26 64 2 0 1 -16 -1 -35z m3198 -118 c43 -28 68
-71 86 -144 17 -73 17 -73 -1 -73 -17 0 -18 -14 -5 -45 8 -19 9 -19 9 3 1 31
21 18 21 -14 0 -25 -23 -33 -36 -13 -3 6 -23 18 -43 26 -20 8 -48 24 -64 35
-49 35 -98 158 -82 207 5 17 38 34 76 40 3 1 21 -9 39 -22z m-3106 -154 c3
-105 8 -140 25 -179 17 -38 21 -59 15 -100 -7 -62 6 -113 43 -167 26 -37 28
-49 30 -141 2 -99 8 -131 43 -231 10 -27 24 -70 31 -95 7 -25 16 -50 20 -55 5
-6 13 -33 19 -60 6 -28 15 -59 20 -70 32 -64 92 -258 97 -312 7 -73 28 -102
62 -84 11 7 23 22 26 34 6 23 -13 126 -33 182 -29 80 -96 279 -119 350 -13 44
-32 96 -40 115 -24 52 -29 179 -9 218 27 53 21 137 -16 209 -32 62 -32 63 -15
98 29 61 23 91 -32 144 -62 61 -69 75 -77 158 -8 84 4 113 45 113 52 0 91 -68
105 -180 15 -118 19 -132 48 -166 32 -36 48 -41 70 -21 32 29 61 38 99 32 81
-14 111 -70 122 -230 3 -44 13 -97 22 -117 8 -21 15 -57 15 -81 0 -72 20 -159
50 -217 23 -43 29 -71 32 -131 3 -65 7 -82 33 -119 66 -94 63 -86 62 -196 -1
-61 4 -112 11 -126 6 -13 20 -54 30 -93 l19 -70 43 -3 c40 -3 42 -2 37 20 -3
13 -15 59 -25 102 -19 75 -19 82 -4 135 31 106 20 231 -25 279 -17 18 -16 51
2 86 28 54 20 77 -49 143 -77 74 -103 126 -105 209 -2 58 -1 62 24 68 60 15
123 -30 148 -104 8 -25 18 -79 21 -120 8 -84 39 -157 73 -173 17 -7 27 -5 48
11 39 31 84 36 131 17 50 -20 60 -45 74 -185 6 -58 15 -118 21 -135 14 -40 39
-289 29 -293 -5 -2 -4 -17 1 -35 12 -41 11 -57 -1 -57 -5 0 -10 9 -10 21 0 11
-7 35 -16 52 -9 18 -21 41 -26 51 -6 10 -30 76 -55 145 -25 69 -56 155 -69
191 -13 36 -24 83 -24 106 0 54 -28 83 -65 66 -43 -20 -39 -50 40 -292 97
-297 109 -342 107 -387 -1 -23 5 -54 13 -70 19 -37 19 -67 -2 -106 -22 -42
-21 -184 1 -229 19 -38 20 -58 4 -58 -9 0 -8 -4 2 -10 12 -8 13 -13 3 -30 -7
-11 -13 -28 -14 -37 0 -13 -4 -10 -13 9 -6 15 -23 39 -36 54 -14 15 -20 28
-15 30 14 6 2 115 -24 224 -12 47 -25 105 -31 130 -11 57 -37 129 -51 147 -13
15 -55 18 -64 4 -3 -5 6 -53 20 -106 14 -54 25 -107 25 -119 0 -11 7 -39 15
-61 8 -22 14 -73 15 -113 0 -65 3 -76 26 -99 25 -25 25 -27 8 -37 -37 -22 -59
-23 -96 -4 -57 28 -70 64 -78 208 -4 69 -12 138 -19 153 -6 16 -11 59 -11 97
0 95 -3 100 -60 100 -28 0 -52 5 -57 13 -4 6 -9 42 -10 80 -3 71 -15 103 -57
151 -34 38 -46 84 -35 137 12 64 -5 156 -63 334 -11 33 -32 103 -48 155 -15
52 -46 148 -69 213 -22 65 -41 135 -41 155 0 43 -14 62 -45 62 -31 0 -49 -40
-40 -87 4 -21 11 -43 15 -48 5 -6 12 -25 15 -43 3 -18 10 -41 15 -50 15 -27
110 -334 110 -354 0 -11 6 -31 14 -46 7 -15 22 -60 31 -100 18 -72 18 -74 -5
-163 -26 -105 -23 -177 10 -221 24 -32 25 -47 5 -112 -8 -28 -13 -57 -10 -66
3 -10 -1 -22 -8 -28 -11 -9 -20 -2 -45 34 -43 60 -57 63 -94 25 -33 -33 -63
-39 -116 -20 -44 15 -68 73 -81 191 -5 56 -19 117 -30 144 -13 28 -21 68 -21
101 0 80 -38 203 -75 239 -9 9 -11 34 -8 81 5 61 2 75 -27 138 -31 68 -31 73
-25 165 3 53 2 115 -4 140 -20 91 -25 527 -5 507 2 -1 5 -62 8 -134z m560 32
c4 -52 4 -99 1 -105 -3 -5 -46 -10 -94 -10 l-88 0 -7 46 c-3 26 -6 73 -6 105
l0 59 94 0 93 0 7 -95z m1274 29 c9 -3 11 -27 6 -101 -8 -130 -5 -125 -50
-109 -50 17 -58 39 -13 34 l34 -3 0 80 0 80 -42 9 c-24 6 -43 13 -43 17 0 6
82 2 108 -7z m-40 -43 c10 -6 12 -21 7 -55 -7 -46 -20 -57 -43 -34 -18 18 -15
27 8 21 16 -4 20 0 20 17 0 13 -8 24 -20 27 -11 3 -20 12 -20 19 0 15 28 18
48 5z m-119 -56 c0 -26 -2 -27 -9 -10 -5 11 -9 31 -9 45 -1 20 1 22 9 10 5 -8
9 -28 9 -45z m-1772 -42 c-2 -16 -4 -3 -4 27 0 30 2 43 4 28 2 -16 2 -40 0
-55z m-512 -33 c-15 -25 -40 6 -28 35 5 13 8 13 20 -5 8 -11 11 -25 8 -30z
m545 -15 c0 -33 -4 -55 -11 -55 -8 0 -8 59 1 108 0 1 2 2 5 2 3 0 5 -25 5 -55z
m1759 -5 c0 -23 -1 -23 -9 -5 -5 11 -9 31 -9 45 0 23 1 23 9 5 5 -11 9 -31 9
-45z m-2489 20 c0 -5 -5 -10 -11 -10 -5 0 -7 5 -4 10 3 6 8 10 11 10 2 0 4 -4
4 -10z m90 -44 c0 -3 -4 -8 -10 -11 -5 -3 -10 -1 -10 4 0 6 5 11 10 11 6 0 10
-2 10 -4z m631 -178 c9 -66 8 -87 -7 -140 -25 -90 -29 -186 -10 -251 14 -49
14 -58 0 -102 -21 -60 -7 -115 41 -159 39 -37 61 -92 70 -172 6 -48 4 -62 -8
-73 -26 -21 -77 -9 -101 22 -18 25 -22 47 -27 175 -3 90 -10 156 -18 171 -10
18 -11 37 -3 80 6 31 14 121 17 201 3 80 7 154 10 165 2 11 4 70 5 130 2 121
11 109 31 -47z m963 121 c9 -10 16 -188 8 -193 -19 -11 -169 -19 -175 -8 -4 5
-9 53 -12 105 l-6 96 58 3 c68 4 122 2 127 -3z m-1531 -24 c-21 -28 -33 -32
-33 -10 0 8 7 15 15 15 8 0 15 5 15 10 0 6 5 10 10 10 6 0 3 -11 -7 -25z
m2354 3 c-3 -8 -6 -5 -6 6 -1 11 2 17 5 13 3 -3 4 -12 1 -19z m1565 2 c12 -11
18 -23 15 -27 -4 -3 -16 3 -27 15 -33 35 -23 45 12 12z m193 10 c3 -6 -5 -14
-18 -19 -14 -6 -28 -15 -32 -20 -9 -15 -25 -14 -25 2 0 7 12 20 28 29 32 20
39 21 47 8z m-4061 -31 c-3 -5 -10 -7 -15 -3 -5 3 -7 10 -3 15 3 5 10 7 15 3
5 -3 7 -10 3 -15z m3915 -23 c7 -8 8 -17 3 -20 -6 -3 -12 3 -15 14 -6 24 -4
25 12 6z m-3884 -6 c3 -5 -1 -10 -10 -10 -9 0 -13 5 -10 10 3 6 8 10 10 10 2
0 7 -4 10 -10z m4020 0 c3 -5 2 -10 -4 -10 -5 0 -13 5 -16 10 -3 6 -2 10 4 10
5 0 13 -4 16 -10z m-4065 -30 c0 -5 -5 -10 -11 -10 -5 0 -7 5 -4 10 3 6 8 10
11 10 2 0 4 -4 4 -10z m2408 -60 c7 -25 16 -88 21 -140 9 -95 7 -128 -4 -74
-3 16 -10 45 -15 64 -5 20 -14 65 -20 100 -5 36 -13 78 -17 95 -11 50 21 9 35
-45z m257 30 c94 -16 89 -7 82 -123 -3 -56 -10 -113 -15 -127 -6 -14 -11 -20
-11 -15 -1 12 -62 31 -127 41 -66 10 -65 8 -58 133 l7 113 31 -6 c17 -4 58
-11 91 -16z m1233 11 c8 -4 13 -14 12 -22 -1 -8 -2 -21 -1 -29 1 -13 2 -13 11
0 7 11 11 9 19 -13 6 -16 11 -34 11 -40 0 -7 8 -25 18 -42 17 -27 17 -31 3
-43 -14 -11 -14 -14 7 -28 16 -12 22 -26 22 -53 0 -20 5 -42 12 -49 9 -9 7
-12 -9 -12 -19 0 -21 4 -16 40 5 36 4 40 -17 40 -23 0 -24 -17 -5 -62 5 -13 3
-18 -9 -18 -9 0 -16 7 -16 15 0 7 -7 18 -15 22 -15 9 -10 53 6 53 14 0 11 20
-6 36 -8 9 -15 20 -15 25 0 5 7 12 15 15 18 7 19 34 3 69 -8 19 -14 22 -20 13
-12 -19 -26 7 -21 36 3 13 0 27 -6 30 -12 8 -15 26 -3 26 4 0 13 -4 20 -9z
m-28 -37 c0 -8 -5 -12 -10 -9 -6 4 -8 11 -5 16 9 14 15 11 15 -7z m-3840 -14
c0 -5 -4 -10 -10 -10 -5 0 -10 5 -10 10 0 6 5 10 10 10 6 0 10 -4 10 -10z
m2336 -112 c-3 -15 -1 -30 4 -33 6 -3 10 -27 10 -53 -1 -39 -2 -44 -12 -28
-21 36 -30 98 -16 108 10 8 10 11 1 15 -8 3 -13 22 -12 46 l1 42 15 -35 c8
-18 12 -46 9 -62z m1773 64 c0 -11 -3 -12 -6 -4 -2 6 -12 12 -21 12 -14 0 -15
2 -2 9 18 12 30 5 29 -17z m-4089 -22 c0 -5 -4 -10 -10 -10 -5 0 -10 5 -10 10
0 6 5 10 10 10 6 0 10 -4 10 -10z m75 -50 c3 -5 1 -10 -4 -10 -6 0 -11 5 -11
10 0 6 2 10 4 10 3 0 8 -4 11 -10z m-55 -20 c0 -5 -5 -10 -11 -10 -5 0 -7 5
-4 10 3 6 8 10 11 10 2 0 4 -4 4 -10z m70 -30 c0 -5 -4 -10 -10 -10 -5 0 -10
5 -10 10 0 6 5 10 10 10 6 0 10 -4 10 -10z m1691 -36 c11 -30 3 -46 -11 -24
-5 8 -11 18 -12 22 -2 4 -33 5 -70 1 l-68 -6 0 -56 c0 -100 1 -101 87 -101
l74 0 -2 55 c-4 77 7 79 14 3 3 -35 3 -66 -1 -70 -4 -4 -45 -8 -92 -9 l-85 -2
-7 34 c-3 19 -8 63 -9 98 -3 76 1 79 104 80 64 1 68 0 78 -25z m-1686 -3 c3
-5 1 -12 -5 -16 -5 -3 -10 1 -10 9 0 18 6 21 15 7z m1646 -62 c1 -16 2 -37 3
-46 1 -15 -7 -18 -44 -18 l-45 0 -3 47 c-3 42 -1 47 20 50 48 7 68 -3 69 -33z
m-1651 11 c0 -5 -5 -10 -11 -10 -5 0 -7 5 -4 10 3 6 8 10 11 10 2 0 4 -4 4
-10z m3910 -45 c0 -8 -4 -15 -10 -15 -5 0 -7 7 -4 15 4 8 8 15 10 15 2 0 4 -7
4 -15z m-3910 -5 c0 -5 -4 -10 -10 -10 -5 0 -10 5 -10 10 0 6 5 10 10 10 6 0
10 -4 10 -10z m2494 -43 c49 -52 67 -77 61 -87 -3 -5 -1 -11 5 -15 14 -8 13
-78 -1 -92 -6 -6 -11 -41 -10 -77 1 -70 21 -125 60 -160 20 -18 21 -18 56 13
36 31 48 35 95 31 63 -5 110 -59 110 -125 0 -17 3 -35 7 -39 4 -4 6 -22 4 -41
-3 -37 20 -127 49 -190 10 -22 21 -58 24 -80 11 -71 39 -170 53 -186 7 -8 13
-22 13 -29 0 -7 11 -28 25 -46 14 -18 25 -34 25 -36 0 -2 -16 -2 -35 0 -24 3
-36 10 -41 26 -4 11 -10 23 -13 26 -15 11 -52 84 -97 192 -26 62 -72 159 -101
215 -29 56 -53 114 -53 128 0 45 -26 94 -55 101 -69 17 -62 -69 19 -251 15
-33 31 -69 36 -80 5 -11 27 -60 50 -110 80 -174 112 -293 80 -302 -13 -4 -13
-3 0 6 14 10 12 13 -7 10 -3 0 -10 6 -15 15 -8 13 -13 14 -31 4 -20 -11 -56
-12 -66 -2 -3 2 4 11 15 19 18 13 17 14 -14 26 -32 11 -62 52 -62 84 0 8 -4
23 -10 33 -36 63 -53 132 -56 227 -3 122 -15 176 -54 254 -24 48 -30 68 -25
95 9 48 -9 99 -64 176 -25 36 -53 88 -63 115 -21 59 -24 171 -5 178 32 13 61
5 91 -26z m258 -38 c19 -10 61 -16 136 -18 l33 -1 -3 -102 -3 -103 -92 -3
c-130 -4 -133 -1 -128 101 4 78 17 137 30 137 4 0 16 -5 27 -11z m-2922 -9 c0
-5 -4 -10 -10 -10 -5 0 -10 5 -10 10 0 6 5 10 10 10 6 0 10 -4 10 -10z m200 0
c0 -5 -11 -10 -25 -10 -14 0 -25 5 -25 10 0 6 11 10 25 10 14 0 25 -4 25 -10z
m-140 -10 c0 -5 -2 -10 -4 -10 -3 0 -8 5 -11 10 -3 6 -1 10 4 10 6 0 11 -4 11
-10z m2387 -22 c-3 -8 -6 -5 -6 6 -1 11 2 17 5 13 3 -3 4 -12 1 -19z m-2087
-32 c0 -5 -7 -3 -15 4 -8 7 -12 17 -9 22 7 10 24 -9 24 -26z m3738 12 c19 -19
14 -26 -13 -20 -18 3 -31 -2 -45 -18 -16 -19 -20 -20 -20 -7 0 20 35 57 53 57
7 0 18 -5 25 -12z m-1638 -33 c0 -5 -5 -3 -10 5 -5 8 -10 20 -10 25 0 6 5 3
10 -5 5 -8 10 -19 10 -25z m1710 3 c0 -5 -7 -8 -15 -8 -15 0 -20 21 -8 33 7 7
23 -11 23 -25z m-3990 12 c0 -5 -4 -10 -10 -10 -5 0 -10 5 -10 10 0 6 5 10 10
10 6 0 10 -4 10 -10z m124 -6 c10 -25 7 -34 -9 -34 -9 0 -15 9 -15 25 0 28 15
34 24 9z m153 -6 c-3 -8 -6 -5 -6 6 -1 11 2 17 5 13 3 -3 4 -12 1 -19z m-217
-29 c0 -5 -4 -9 -10 -9 -5 0 -10 7 -10 16 0 8 5 12 10 9 6 -3 10 -10 10 -16z
m2153 -131 c17 -54 15 -68 -9 -68 -8 0 -14 -5 -14 -11 0 -5 -5 -7 -10 -4 -6 4
-8 15 -5 26 5 15 3 17 -11 12 -15 -5 -16 0 -12 50 4 43 1 57 -9 57 -7 0 -13
11 -13 27 l0 27 33 -32 c19 -19 40 -54 50 -84z m-266 85 c-20 -2 -52 -2 -70 0
-17 2 0 4 38 4 39 0 53 -2 32 -4z m-1887 -17 c0 -3 -4 -8 -10 -11 -5 -3 -10
-1 -10 4 0 6 5 11 10 11 6 0 10 -2 10 -4z m1879 -29 c-2 -1 -12 -9 -21 -16
-15 -12 -18 -11 -18 3 0 10 8 16 22 16 12 0 19 -1 17 -3z m-1949 -71 c0 -3 -4
-8 -10 -11 -5 -3 -10 -1 -10 4 0 6 5 11 10 11 6 0 10 -2 10 -4z m1980 -8 c0
-5 -11 -8 -24 -8 -14 0 -27 3 -29 8 -3 4 8 7 24 7 16 0 29 -3 29 -7z m-2050
-18 c0 -5 -5 -10 -11 -10 -5 0 -7 5 -4 10 3 6 8 10 11 10 2 0 4 -4 4 -10z
m3176 -40 c19 0 34 -4 34 -10 0 -5 -18 -10 -40 -10 l-40 0 0 -73 c0 -105 6
-110 113 -106 147 6 100 -14 -56 -24 -55 -4 -58 -3 -63 22 -3 14 -9 44 -14 66
-25 113 -20 151 18 139 8 -2 29 -4 48 -4z m123 -28 c-2 -24 -2 -24 -6 -4 -4
18 -12 22 -41 23 l-37 2 35 6 c45 9 50 6 49 -27z m-1226 21 c-13 -2 -35 -2
-50 0 -16 2 -5 4 22 4 28 0 40 -2 28 -4z m237 -3 c0 -5 -5 -10 -11 -10 -5 0
-7 5 -4 10 3 6 8 10 11 10 2 0 4 -4 4 -10z m-2385 -10 c3 -5 -1 -10 -9 -10 -9
0 -16 5 -16 10 0 6 4 10 9 10 6 0 13 -4 16 -10z m-225 -20 c0 -5 -4 -10 -10
-10 -5 0 -10 5 -10 10 0 6 5 10 10 10 6 0 10 -4 10 -10z m380 6 c0 -3 -4 -8
-10 -11 -5 -3 -10 -1 -10 4 0 6 5 11 10 11 6 0 10 -2 10 -4z m2230 -11 c16 -9
19 -14 9 -15 -8 0 -24 7 -35 15 -24 18 -7 19 26 0z m950 -24 c0 -11 3 -26 6
-35 3 -9 1 -16 -5 -16 -6 0 -11 8 -11 19 0 20 -39 36 -53 22 -5 -5 -7 -19 -5
-32 2 -20 9 -24 35 -24 40 0 53 -12 20 -20 -50 -13 -71 -3 -79 40 -12 56 -6
65 47 65 38 0 45 -3 45 -19z m-3304 -47 c7 -26 -7 -51 -23 -41 -12 7 -4 67 8
67 5 0 12 -12 15 -26z m-56 -20 c0 -24 -4 -34 -12 -32 -24 8 -22 68 2 68 5 0
10 -16 10 -36z m3417 14 c-3 -8 -6 -5 -6 6 -1 11 2 17 5 13 3 -3 4 -12 1 -19z
m-3752 2 c3 -5 1 -10 -4 -10 -6 0 -11 5 -11 10 0 6 2 10 4 10 3 0 8 -4 11 -10z
m2450 -48 c6 -4 10 -13 11 -19 3 -35 4 -38 14 -23 11 18 27 5 32 -25 2 -16 -2
-19 -19 -18 -18 2 -23 -2 -23 -22 0 -16 6 -25 15 -25 8 0 15 -4 15 -10 0 -5
-9 -10 -19 -10 -11 0 -26 -3 -34 -6 -30 -11 -52 127 -25 154 14 14 19 15 33 4z
m-2175 -22 c0 -5 -4 -10 -10 -10 -5 0 -10 5 -10 10 0 6 5 10 10 10 6 0 10 -4
10 -10z m100 -30 c0 -5 -5 -10 -11 -10 -5 0 -7 5 -4 10 3 6 8 10 11 10 2 0 4
-4 4 -10z m2611 -33 c1 -31 1 -31 9 -7 5 15 8 18 9 8 1 -9 4 -24 8 -34 5 -13
3 -15 -7 -9 -10 6 -12 4 -7 -7 3 -9 3 -19 -1 -22 -3 -4 -12 15 -19 41 -15 59
-16 76 -3 68 6 -3 10 -21 11 -38z m-1949 -92 c5 -48 7 -94 4 -101 -4 -11 -28
-14 -96 -14 -49 0 -90 3 -90 8 0 4 -3 51 -6 104 l-7 97 84 3 c46 2 88 0 93 -4
4 -3 12 -45 18 -93z m-662 45 c0 -5 -4 -10 -10 -10 -5 0 -10 5 -10 10 0 6 5
10 10 10 6 0 10 -4 10 -10z m50 -40 c0 -5 -5 -10 -11 -10 -5 0 -7 5 -4 10 3 6
8 10 11 10 2 0 4 -4 4 -10z m2595 -59 c-8 -8 -25 51 -18 62 4 7 10 -3 14 -23
4 -19 6 -37 4 -39z m686 -13 c26 -13 45 -32 51 -50 5 -15 15 -28 21 -28 6 0 7
-3 4 -7 -4 -3 -1 -13 7 -22 16 -20 27 -61 15 -61 -4 0 -6 -7 -3 -15 9 -23 -33
-19 -46 5 -6 11 -16 20 -23 19 -9 0 -9 -2 1 -6 6 -2 12 -13 12 -23 0 -14 11
-22 40 -30 22 -6 40 -14 40 -18 -1 -18 -19 -34 -34 -29 -35 14 -117 83 -123
104 -3 13 -9 23 -15 23 -24 0 -52 133 -31 153 12 13 42 7 84 -15z m-674 -30
c-3 -8 -6 -5 -6 6 -1 11 2 17 5 13 3 -3 4 -12 1 -19z m-1332 -103 c4 -92 -5
-109 -57 -102 -47 6 -88 41 -88 74 0 13 -3 23 -7 23 -10 0 -34 52 -28 59 9 8
88 19 134 17 l43 -1 3 -70z m-1915 -1 c0 -9 -7 -9 -30 3 -25 12 -29 18 -19 29
10 13 14 12 30 -2 11 -10 19 -23 19 -30z m3279 6 c0 -10 -3 -8 -9 5 -12 27
-12 43 0 25 5 -8 9 -22 9 -30z m-3349 -19 c0 -5 9 -11 21 -14 12 -3 19 -11 17
-18 -7 -20 -24 -21 -42 -4 -18 18 -21 45 -6 45 6 0 10 -4 10 -9z m465 -11 c3
-5 1 -10 -4 -10 -6 0 -11 5 -11 10 0 6 2 10 4 10 3 0 8 -4 11 -10z m183 -2
c14 -14 16 -68 2 -68 -5 0 -10 5 -10 12 0 6 -7 19 -16 29 -25 27 -2 53 24 27z
m1892 -11 c1 -4 -3 -15 -9 -24 -8 -15 -10 -15 -25 -1 -25 26 -21 48 9 40 13
-4 25 -10 25 -15z m-886 -19 c3 -13 10 -54 15 -93 9 -60 8 -72 -5 -82 -18 -13
-136 -28 -158 -20 -12 5 -28 106 -31 192 0 10 59 21 132 23 37 2 43 -1 47 -20z
m-1048 -43 c-1 -5 -10 -11 -19 -13 -18 -4 -34 39 -22 59 9 13 47 -29 41 -46z
m-276 1 c0 -3 -4 -8 -10 -11 -5 -3 -10 -1 -10 4 0 6 5 11 10 11 6 0 10 -2 10
-4z m2299 -30 c8 -10 8 -16 -2 -25 -16 -13 -27 -5 -27 21 0 21 13 23 29 4z
m-2074 -6 c3 -5 1 -10 -4 -10 -6 0 -11 5 -11 10 0 6 2 10 4 10 3 0 8 -4 11
-10z m2020 -42 c4 -13 13 -38 21 -55 9 -20 14 -57 13 -95 -2 -35 1 -74 5 -88
7 -22 5 -22 -12 5 -27 43 -44 99 -36 120 7 18 8 18 16 -1 8 -18 8 -18 5 1 -2
12 -10 19 -20 19 -14 -2 -17 8 -17 57 0 59 13 78 25 37z m-2195 -48 c0 -5 -4
-10 -10 -10 -5 0 -10 5 -10 10 0 6 5 10 10 10 6 0 10 -4 10 -10z m1622 -9 c4
-3 8 -49 10 -101 l3 -95 -79 -3 c-86 -3 -96 2 -96 51 0 15 -3 27 -7 27 -5 0
-7 19 -6 42 1 24 2 55 2 70 l1 26 83 -5 c45 -3 85 -8 89 -12z m-1307 -1 c3 -5
1 -10 -4 -10 -6 0 -11 5 -11 10 0 6 2 10 4 10 3 0 8 -4 11 -10z m-115 -30 c0
-5 -5 -10 -11 -10 -5 0 -7 5 -4 10 3 6 8 10 11 10 2 0 4 -4 4 -10z m90 -30 c0
-5 -5 -10 -11 -10 -5 0 -7 5 -4 10 3 6 8 10 11 10 2 0 4 -4 4 -10z m-280 -20
c0 -5 -2 -10 -4 -10 -3 0 -8 5 -11 10 -3 6 -1 10 4 10 6 0 11 -4 11 -10z
m3820 -10 c0 -13 -11 -13 -30 0 -12 8 -11 10 8 10 12 0 22 -4 22 -10z m-7025
-67 c-10 -40 -17 -20 -9 23 5 24 9 32 12 21 2 -10 1 -30 -3 -44z m6710 49 c6
-4 15 -16 21 -27 9 -16 8 -22 -4 -31 -14 -10 -13 -13 6 -23 23 -12 31 -64 12
-76 -5 -3 -10 -11 -10 -17 0 -7 4 -7 13 0 10 8 13 6 13 -9 0 -14 -6 -19 -20
-17 -14 2 -26 19 -41 59 -11 30 -31 70 -44 89 -23 32 -24 33 -6 46 21 15 45
18 60 6z m-5525 -37 c14 -19 14 -19 -2 -6 -10 7 -18 18 -18 24 0 6 1 8 3 6 1
-2 9 -13 17 -24z m2034 -7 c5 -9 7 -20 4 -23 -9 -10 -59 26 -52 37 9 13 35 6
48 -14z m273 -14 l26 -16 -5 -134 c-3 -80 -9 -139 -16 -146 -15 -15 -69 7 -83
34 -6 12 -8 52 -4 106 5 65 3 98 -8 129 -8 23 -12 45 -8 49 10 10 71 -4 98
-22z m2374 6 c10 0 19 -4 19 -10 0 -5 27 -35 59 -67 63 -61 81 -102 81 -178 0
-69 -38 -84 -102 -40 -45 31 -96 132 -108 214 -5 33 -11 65 -14 70 -7 11 14
21 32 15 8 -2 22 -4 33 -4z m-2881 -4 c0 -3 -4 -8 -10 -11 -5 -3 -10 -1 -10 4
0 6 5 11 10 11 6 0 10 -2 10 -4z m200 -38 c0 -15 -28 -9 -34 8 -11 30 -6 37
14 19 11 -10 20 -22 20 -27z m-270 8 c0 -3 -4 -8 -10 -11 -5 -3 -10 -1 -10 4
0 6 5 11 10 11 6 0 10 -2 10 -4z m4178 -21 c2 -2 -3 -16 -11 -32 -8 -15 -12
-35 -9 -43 4 -12 2 -13 -9 -2 -7 6 -21 12 -30 12 -25 0 -31 28 -11 55 13 18
23 22 42 18 14 -3 26 -7 28 -8z m-3758 -15 c0 -5 -4 -10 -10 -10 -5 0 -10 5
-10 10 0 6 5 10 10 10 6 0 10 -4 10 -10z m-315 -10 c3 -5 1 -10 -4 -10 -6 0
-11 5 -11 10 0 6 2 10 4 10 3 0 8 -4 11 -10z m-85 -10 c0 -5 -4 -10 -10 -10
-5 0 -10 5 -10 10 0 6 5 10 10 10 6 0 10 -4 10 -10z m130 0 c0 -5 -5 -10 -11
-10 -5 0 -7 5 -4 10 3 6 8 10 11 10 2 0 4 -4 4 -10z m-2960 -48 c0 -21 -7 -32
-25 -40 -33 -15 -35 -15 -35 5 0 17 37 63 52 63 4 0 8 -13 8 -28z m3050 4 c0
-3 -4 -8 -10 -11 -5 -3 -10 -1 -10 4 0 6 5 11 10 11 6 0 10 -2 10 -4z m130
-10 c0 -3 -4 -8 -10 -11 -5 -3 -10 -1 -10 4 0 6 5 11 10 11 6 0 10 -2 10 -4z
m3794 -27 c-3 -5 -10 -7 -15 -3 -5 3 -7 10 -3 15 3 5 10 7 15 3 5 -3 7 -10 3
-15z m-3890 -10 c-3 -5 -10 -7 -15 -3 -5 3 -7 10 -3 15 3 5 10 7 15 3 5 -3 7
-10 3 -15z m136 11 c0 -5 -5 -10 -11 -10 -5 0 -7 5 -4 10 3 6 8 10 11 10 2 0
4 -4 4 -10z m-3155 -20 c17 0 26 -51 12 -68 -5 -7 -19 -18 -29 -23 -15 -8 -20
-5 -29 17 -13 37 -2 87 18 80 8 -3 20 -6 28 -6z m3095 -20 c0 -5 -4 -10 -10
-10 -5 0 -10 5 -10 10 0 6 5 10 10 10 6 0 10 -4 10 -10z m-173 -62 c-3 -8 -6
-5 -6 6 -1 11 2 17 5 13 3 -3 4 -12 1 -19z m133 12 c0 -5 -4 -10 -10 -10 -5 0
-10 5 -10 10 0 6 5 10 10 10 6 0 10 -4 10 -10z m317 -12 c-3 -8 -6 -5 -6 6 -1
11 2 17 5 13 3 -3 4 -12 1 -19z m3033 -12 c0 -3 -4 -8 -10 -11 -5 -3 -10 -1
-10 4 0 6 5 11 10 11 6 0 10 -2 10 -4z m-3320 -15 c0 -5 -9 -11 -20 -14 -20
-5 -26 3 -13 16 9 10 33 8 33 -2z"/>
<path d="M8162 8328 c3 -7 15 -14 29 -16 24 -4 24 -3 4 12 -24 19 -38 20 -33
4z"/>
<path d="M8095 8310 c-3 -5 -11 -7 -18 -5 -17 7 -41 -11 -33 -23 3 -6 20 -13
37 -17 24 -5 36 -2 55 16 13 12 24 26 24 31 0 11 -58 10 -65 -2z"/>
<path d="M7841 8222 c0 -26 3 -41 6 -34 2 6 20 12 39 12 49 0 46 30 -6 52
l-40 17 1 -47z"/>
<path d="M7608 7683 c7 -3 16 -2 19 1 4 3 -2 6 -13 5 -11 0 -14 -3 -6 -6z"/>
<path d="M8080 7410 c0 -5 16 -10 35 -10 19 0 35 5 35 10 0 6 -16 10 -35 10
-19 0 -35 -4 -35 -10z"/>
<path d="M11280 3589 c0 -5 5 -7 10 -4 6 3 10 8 10 11 0 2 -4 4 -10 4 -5 0
-10 -5 -10 -11z"/>
<path d="M10930 4674 c0 -9 5 -14 12 -12 18 6 21 28 4 28 -9 0 -16 -7 -16 -16z"/>
<path d="M11221 4434 c0 -11 3 -14 6 -6 3 7 2 16 -1 19 -3 4 -6 -2 -5 -13z"/>
<path d="M8505 4311 l-40 -6 0 -65 0 -65 31 -3 c18 -2 47 1 65 6 33 8 34 10
36 62 1 30 -3 60 -9 67 -11 14 -18 14 -83 4z m73 -59 c4 -43 -8 -57 -52 -60
-30 -2 -36 1 -42 23 -3 14 -3 37 0 51 6 23 11 25 49 22 40 -3 42 -5 45 -36z"/>
<path d="M8517 4264 c-15 -15 -7 -45 11 -42 9 2 17 12 17 22 0 20 -16 31 -28
20z"/>
<path d="M9117 4153 c-4 -3 -7 -13 -7 -22 1 -13 3 -13 11 2 11 19 8 33 -4 20z"/>
<path d="M9072 4129 c2 -6 8 -10 13 -10 5 0 11 4 13 10 2 6 -4 11 -13 11 -9 0
-15 -5 -13 -11z"/>
<path d="M9850 3951 c0 -5 9 -11 20 -14 16 -4 20 -14 20 -46 0 -42 -14 -53
-38 -29 -9 9 -12 9 -12 0 0 -13 32 -32 54 -32 13 0 16 12 16 59 0 52 -2 59
-22 65 -31 8 -38 7 -38 -3z"/>
<path d="M9844 3914 c2 -10 8 -20 14 -22 17 -5 15 13 -2 27 -12 10 -14 9 -12
-5z"/>
<path d="M9841 3483 c-1 -90 4 -143 19 -205 11 -46 20 -108 20 -138 0 -51 39
-295 53 -330 6 -16 17 -66 19 -87 1 -7 4 -13 8 -13 4 0 13 -28 20 -62 7 -35
17 -68 21 -74 5 -6 8 -24 7 -40 0 -16 2 -66 5 -111 4 -49 2 -85 -3 -88 -6 -4
-10 -14 -10 -23 0 -13 2 -14 9 -4 6 10 10 4 14 -18 6 -25 11 -31 29 -28 30 4
42 63 29 143 -6 33 -13 77 -16 98 -3 21 -22 86 -41 145 -48 148 -94 330 -94
374 0 20 5 58 11 85 10 43 8 56 -15 127 -20 59 -25 89 -21 121 5 32 1 53 -16
89 -12 27 -28 74 -35 105 -12 56 -12 56 -13 -66z"/>
<path d="M8786 3971 c-3 -4 -3 -38 1 -75 l6 -67 61 3 61 3 -1 63 c0 43 -5 67
-15 73 -18 11 -106 12 -113 0z m118 -43 c15 -73 11 -78 -49 -78 l-55 0 -2 35
c-1 19 -2 43 -2 53 -1 13 9 18 39 22 54 8 62 4 69 -32z"/>
<path d="M8832 3908 c3 -7 13 -15 22 -16 12 -3 17 1 14 10 -3 7 -13 15 -22 16
-12 3 -17 -1 -14 -10z"/>
<path d="M9184 3586 c-7 -19 3 -36 22 -36 10 0 14 8 12 22 -4 26 -26 36 -34
14z"/>
<path d="M10420 3365 c-10 -11 -10 -19 -2 -27 15 -15 44 -2 40 19 -4 23 -22
27 -38 8z"/>
<path d="M7660 3325 c0 -20 5 -25 25 -25 20 0 25 5 25 25 0 20 -5 25 -25 25
-20 0 -25 -5 -25 -25z"/>
<path d="M10881 2929 c-24 -4 -46 -11 -49 -14 -6 -6 18 -138 28 -155 6 -9 25
-9 81 -1 40 7 75 13 77 15 1 2 -5 39 -15 82 -18 76 -19 79 -48 81 -17 1 -50
-3 -74 -8z m85 -56 c3 -16 8 -36 11 -47 7 -24 -13 -36 -59 -36 -38 0 -38 0
-53 64 -8 35 5 46 57 46 33 0 38 -3 44 -27z"/>
<path d="M10902 2871 c-23 -14 -10 -46 21 -49 21 -3 27 1 27 15 0 18 -17 43
-29 43 -4 0 -12 -4 -19 -9z"/>
<path d="M8308 2523 c-37 -4 -38 -5 -38 -47 0 -24 3 -58 6 -75 l7 -31 68 0
c37 0 70 3 72 8 2 4 1 39 -2 77 l-6 70 -35 1 c-19 1 -52 -1 -72 -3z m84 -65
c3 -24 2 -46 -2 -51 -3 -4 -24 -8 -46 -10 l-39 -2 -3 53 -3 52 44 0 45 0 4
-42z"/>
<path d="M8337 2472 c-27 -6 -18 -46 11 -50 18 -3 22 1 22 22 0 28 -7 34 -33
28z"/>
<path d="M8615 2179 c-4 -5 -4 -41 0 -80 l7 -69 53 0 c90 0 93 6 79 114 l-7
46 -63 0 c-34 0 -66 -5 -69 -11z m115 -69 l0 -50 -45 0 -45 0 0 50 0 50 45 0
45 0 0 -50z"/>
<path d="M8665 2131 c-8 -15 14 -53 28 -48 18 6 15 51 -5 55 -9 2 -19 -2 -23
-7z"/>
<path d="M9860 2045 c0 -7 -3 -34 -7 -60 -4 -35 -3 -46 5 -41 7 4 12 27 12 52
l0 44 42 0 c51 0 47 5 -9 13 -31 4 -43 2 -43 -8z"/>
<path d="M9910 1981 c0 -12 6 -21 15 -21 8 0 15 4 15 9 0 5 -7 14 -15 21 -13
10 -15 9 -15 -9z"/>
<path d="M9983 1955 c0 -22 2 -30 4 -17 2 12 2 30 0 40 -3 9 -5 -1 -4 -23z"/>
<path d="M9859 1917 c8 -11 27 -17 50 -16 l36 1 -35 7 c-20 4 -42 11 -50 16
-13 8 -13 6 -1 -8z"/>
<path d="M9970 1899 c0 -5 5 -7 10 -4 6 3 10 8 10 11 0 2 -4 4 -10 4 -5 0 -10
-5 -10 -11z"/>
<path d="M9007 1773 c-14 -13 -6 -34 16 -42 25 -10 41 7 31 33 -6 16 -35 22
-47 9z"/>
<path d="M10290 1557 c0 -30 -3 -64 -6 -74 -5 -12 -4 -15 4 -8 12 11 19 121 9
132 -4 3 -7 -19 -7 -50z"/>
<path d="M10160 1535 c0 -19 2 -35 4 -35 2 0 6 16 8 35 2 19 0 35 -4 35 -4 0
-8 -16 -8 -35z"/>
<path d="M10225 1540 c3 -5 10 -10 16 -10 5 0 9 5 9 10 0 6 -7 10 -16 10 -8 0
-12 -4 -9 -10z"/>
<path d="M10198 1473 c7 -3 16 -2 19 1 4 3 -2 6 -13 5 -11 0 -14 -3 -6 -6z"/>
<path d="M7836 1032 l-58 -3 6 -72 c4 -40 11 -76 15 -80 5 -5 36 -5 71 -1 l62
7 -7 66 c-4 36 -12 71 -18 76 -7 6 -38 9 -71 7z m69 -69 c8 -55 -10 -76 -60
-71 -26 3 -31 8 -37 43 -11 63 -3 75 47 75 l43 0 7 -47z"/>
<path d="M7834 954 c3 -9 6 -18 6 -20 0 -2 7 -4 15 -4 8 0 15 9 15 20 0 14 -7
20 -21 20 -15 0 -19 -4 -15 -16z"/>
<path d="M10641 834 c0 -11 3 -14 6 -6 3 7 2 16 -1 19 -3 4 -6 -2 -5 -13z"/>
<path d="M8198 701 c-26 -4 -50 -10 -53 -13 -4 -3 -3 -38 1 -77 l7 -71 32 0
c18 0 47 3 65 6 l32 7 -7 70 c-6 72 -11 88 -23 86 -4 -1 -28 -5 -54 -8z m56
-52 c13 -67 9 -77 -35 -84 -49 -8 -54 -2 -58 59 -2 47 3 52 60 55 22 1 28 -4
33 -30z"/>
<path d="M8190 620 c0 -13 7 -20 20 -20 13 0 20 7 20 20 0 13 -7 20 -20 20
-13 0 -20 -7 -20 -20z"/>
<path d="M8473 439 c3 -39 7 -72 9 -74 2 -2 32 -5 68 -7 l65 -3 2 45 c1 25 0
60 -3 78 l-5 32 -71 0 -70 0 5 -71z m123 16 c10 -56 -2 -85 -34 -85 -64 0 -72
8 -72 66 l0 54 50 0 c48 0 49 -1 56 -35z"/>
<path d="M8530 430 c0 -11 7 -20 15 -20 8 0 15 9 15 20 0 11 -7 20 -15 20 -8
0 -15 -9 -15 -20z"/>
<path d="M8450 9823 c0 -6 7 -16 15 -23 8 -7 15 -18 15 -25 0 -25 54 -96 68
-90 12 4 13 -1 8 -26 -5 -25 -1 -39 19 -65 14 -18 25 -42 25 -53 0 -24 15 -28
23 -7 4 11 14 12 40 6 19 -4 41 -4 48 1 12 7 12 9 0 9 -9 0 -12 9 -9 30 4 25
-1 36 -27 59 -39 34 -52 53 -31 45 9 -3 16 -2 16 2 -1 19 -27 42 -62 54 -21 8
-38 20 -38 27 0 7 -7 13 -16 13 -9 0 -18 9 -21 19 -6 25 -43 35 -43 13 -1 -15
-3 -14 -15 2 -8 11 -15 15 -15 9z"/>
<path d="M8740 9530 c0 -5 5 -10 10 -10 6 0 10 5 10 10 0 6 -4 10 -10 10 -5 0
-10 -4 -10 -10z"/>
<path d="M8706 9512 c-2 -4 -1 -14 5 -22 7 -12 9 -10 9 8 0 23 -5 28 -14 14z"/>
<path d="M10035 9500 c-3 -5 -1 -10 4 -10 6 0 11 5 11 10 0 6 -2 10 -4 10 -3
0 -8 -4 -11 -10z"/>
<path d="M8810 9400 c0 -22 5 -40 10 -40 6 0 10 18 10 40 0 22 -4 40 -10 40
-5 0 -10 -18 -10 -40z"/>
<path d="M8677 9374 c-9 -10 4 -34 18 -34 20 0 30 21 14 31 -17 10 -24 11 -32
3z"/>
<path d="M6267 9304 c-13 -13 -7 -24 14 -24 11 0 19 5 17 12 -5 14 -22 21 -31
12z"/>
<path d="M6348 9268 c9 -9 15 -9 24 0 9 9 7 12 -12 12 -19 0 -21 -3 -12 -12z"/>
<path d="M6481 9208 c-1 -16 4 -28 9 -28 12 0 12 8 0 35 -8 18 -9 17 -9 -7z"/>
<path d="M8915 9180 c3 -5 10 -10 16 -10 5 0 9 5 9 10 0 6 -7 10 -16 10 -8 0
-12 -4 -9 -10z"/>
<path d="M8140 9110 c0 -5 5 -10 10 -10 6 0 10 5 10 10 0 6 -4 10 -10 10 -5 0
-10 -4 -10 -10z"/>
<path d="M5730 9025 c0 -8 7 -15 15 -15 8 0 15 7 15 15 0 8 -7 15 -15 15 -8 0
-15 -7 -15 -15z"/>
<path d="M9666 8735 c-3 -8 -1 -15 4 -15 6 0 10 7 10 15 0 8 -2 15 -4 15 -2 0
-6 -7 -10 -15z"/>
<path d="M7730 600 c-31 -31 -23 -115 20 -215 5 -11 16 -40 24 -65 8 -25 34
-97 57 -160 22 -63 43 -125 46 -138 5 -19 12 -22 54 -22 28 0 49 5 49 11 0 5
-13 42 -30 81 -16 38 -30 79 -30 89 0 11 -4 27 -9 37 -5 9 -23 55 -41 102 -17
47 -38 101 -46 120 -9 18 -17 61 -19 94 -3 43 -9 64 -21 73 -24 17 -31 16 -54
-7z"/>
<path d="M10655 70 c3 -5 8 -10 11 -10 2 0 4 5 4 10 0 6 -5 10 -11 10 -5 0 -7
-4 -4 -10z"/>
<path d="M10306 15 c-3 -8 -1 -15 4 -15 6 0 10 7 10 15 0 8 -2 15 -4 15 -2 0
-6 -7 -10 -15z"/>
</g>
</svg>
